<?xml version="1.0" standalone="no"?>
<!DOCTYPE svg PUBLIC "-//W3C//DTD SVG 1.0//EN" "http://www.w3.org/TR/2001/REC-SVG-20010904/DTD/svg10.dtd">
<svg xmlns="http://www.w3.org/2000/svg" xmlns:xlink="http://www.w3.org/1999/xlink" id="body_1" width="14" height="14">

<g transform="matrix(0.035000004 0 0 0.035000004 0 0)">
	<g>
        <path d="M299.736 108.479C 299.551 108.766 299.308 119.44 299.196 132.2L299.196 132.2L298.992 155.4L297.932 159.2C 295.68 167.27 291.13 176.527 287.757 179.9C 287.451 180.206 287.2 180.622 287.2 180.824C 287.2 183.325 268.235 197.6 264.911 197.6C 264.63 197.6 264.4 197.78 264.4 198C 264.4 198.22 264.031 198.4 263.58 198.4C 263.129 198.4 262.247 198.665 261.619 198.99C 260.992 199.314 258.526 200.075 256.139 200.679L256.139 200.679L251.8 201.779L201.6 202.018C 162.513 202.205 151.002 202.371 149.6 202.771C 143.674 204.463 140.728 205.496 138.6 206.628C 134.753 208.675 133.605 209.38 133.603 209.7C 133.601 209.865 133.345 210 133.033 210C 132.722 210 132.407 210.135 132.333 210.3C 132.26 210.465 131.303 211.32 130.206 212.2C 123.35 217.701 117.92 226.259 115.611 235.2C 115.355 236.19 114.986 237.54 114.792 238.2C 114.221 240.132 114.163 336.013 114.731 337.074C 114.989 337.554 115.2 338.399 115.2 338.95C 115.2 339.502 115.38 340.064 115.6 340.2C 115.82 340.336 116 340.814 116 341.263C 116 342.296 118.962 348.394 120.011 349.519C 120.445 349.985 120.8 350.491 120.8 350.642C 120.8 351.54 126.011 356.995 129.6 359.854C 130.81 360.818 132.028 361.795 132.307 362.026C 134.201 363.592 146.053 370 147.055 370C 147.178 370 147.846 370.25 148.54 370.554C 151.189 371.72 154.254 372.805 155.6 373.054C 156.37 373.196 157.18 373.444 157.4 373.605C 157.62 373.765 158.79 374.122 160 374.398C 161.21 374.674 162.651 375.06 163.202 375.257C 164.749 375.811 172.697 377.607 175.6 378.059C 177.03 378.281 179.19 378.639 180.4 378.854C 189.924 380.541 212.63 380.743 219.8 379.205C 220.68 379.016 222.75 378.652 224.4 378.396C 228.674 377.733 238.416 375.62 239.246 375.175C 239.632 374.969 240.269 374.8 240.662 374.8C 241.793 374.8 251.626 371.748 254.2 370.598C 254.86 370.304 256.312 369.704 257.426 369.266C 269.604 364.48 280.519 355.136 285.07 345.6C 286.208 343.215 286.596 342.058 288.017 336.8C 288.352 335.557 288.559 329.159 288.685 316.133L288.685 316.133L288.867 297.267L287.969 296.369L287.071 295.471L245.235 295.737C 222.226 295.883 202.995 295.891 202.5 295.755C 201.346 295.437 201.081 286.129 202.2 285.2C 202.675 284.806 216.858 284.733 270.3 284.851C 339.99 285.005 340.175 285.001 344.6 283.501C 346.691 282.792 351.395 280.625 351.533 280.306C 351.607 280.138 351.922 280 352.233 280C 352.545 280 352.8 279.82 352.8 279.6C 352.8 279.38 353.079 279.2 353.421 279.2C 354.213 279.2 362.005 271.391 362.799 269.8C 363.129 269.14 363.507 268.51 363.64 268.4C 365.017 267.256 369.849 257.524 372.577 250.4C 373.377 248.31 374.186 246.24 374.375 245.8C 381.534 229.105 384.273 202.159 381.187 178.8C 379.634 167.046 376.51 153.004 373.356 143.6C 372.581 141.29 371.849 138.905 371.728 138.3C 371.608 137.695 371.35 137.2 371.155 137.2C 370.96 137.2 370.8 136.941 370.8 136.625C 370.8 136.015 366.857 127.939 366.393 127.6C 366.243 127.49 365.615 126.594 364.997 125.609C 364.38 124.624 363.633 123.576 363.337 123.28C 363.042 122.985 362.8 122.603 362.8 122.432C 362.8 122.105 357.833 117.121 355.829 115.437C 352.772 112.867 348.274 110.742 342.4 109.092C 338.627 108.031 300.38 107.483 299.736 108.479M378.329 181.733C 378.406 182.128 378.202 182.4 377.829 182.4C 377.458 182.4 377.2 182.058 377.2 181.567C 377.2 180.592 378.135 180.73 378.329 181.733M379.883 185.947C 380.317 186.994 380.84 194.334 380.999 201.6C 381.166 209.21 379.592 224.272 378.201 228.371C 377.87 229.345 377.599 230.605 377.598 231.171C 377.597 231.737 377.151 233.46 376.607 235C 376.062 236.54 375.613 238.205 375.608 238.7C 375.604 239.195 375.42 239.6 375.2 239.6C 374.98 239.6 374.8 239.958 374.8 240.396C 374.8 240.833 374.369 242.318 373.842 243.696C 373.315 245.073 372.032 248.45 370.992 251.2C 368.244 258.463 363.643 267.6 362.734 267.6C 362.55 267.6 362.4 267.799 362.4 268.043C 362.4 268.692 358.788 273.114 356.541 275.215C 353.015 278.513 349.168 280.728 343.821 282.538L343.821 282.538L340.2 283.764L314.2 283.849C 279.484 283.963 240.8 283.177 240.8 282.357C 240.8 282.161 241.61 282 242.6 282C 244.133 282 244.4 281.881 244.4 281.2C 244.4 280.756 244.667 280.4 245 280.4C 245.669 280.4 245.826 278.987 245.2 278.6C 244.122 277.934 244.856 277.2 246.6 277.2C 248.133 277.2 248.4 277.319 248.4 278C 248.4 278.44 248.58 278.8 248.8 278.8C 249.02 278.8 249.2 278.44 249.2 278C 249.2 277.56 249.457 277.2 249.772 277.2C 250.087 277.2 250.402 276.795 250.472 276.3C 250.554 275.722 250.922 275.354 251.5 275.272C 251.995 275.202 252.4 274.887 252.4 274.572C 252.4 274.257 252.76 274 253.2 274C 253.733 274 254 273.733 254 273.2C 254 272.613 254.267 272.4 255 272.4C 255.8 272.4 256 272.2 256 271.4C 256 270.473 256.139 270.4 257.912 270.4C 259.365 270.4 259.962 270.208 260.4 269.6C 260.717 269.16 261.297 268.8 261.688 268.8C 262.133 268.8 262.4 268.5 262.4 268C 262.4 267.333 262.667 267.2 264 267.2C 265.333 267.2 265.6 267.067 265.6 266.4C 265.6 265.867 265.867 265.6 266.4 265.6C 266.933 265.6 267.2 265.333 267.2 264.8C 267.2 264.267 267.467 264 268 264C 268.533 264 268.8 263.733 268.8 263.2C 268.8 262.667 269.067 262.4 269.6 262.4C 270.133 262.4 270.4 262.133 270.4 261.6C 270.4 260.889 270.667 260.8 272.8 260.8C 275.093 260.8 275.2 260.756 275.2 259.8C 275.2 259 275.4 258.8 276.2 258.8C 277.076 258.8 277.2 258.627 277.2 257.4C 277.2 256.033 277.238 256 278.8 256C 280.24 256 280.4 255.9 280.4 255C 280.4 254.267 280.613 254 281.2 254C 281.733 254 282 253.733 282 253.2C 282 252.519 282.267 252.4 283.8 252.4C 285.453 252.4 285.6 252.319 285.6 251.4C 285.6 250.778 285.827 250.4 286.2 250.4C 286.53 250.4 286.8 250.13 286.8 249.8C 286.8 249.427 287.178 249.2 287.8 249.2C 288.533 249.2 288.8 248.987 288.8 248.4C 288.8 247.733 289.067 247.6 290.4 247.6C 291.84 247.6 292 247.5 292 246.6C 292 245.867 292.213 245.6 292.8 245.6C 293.244 245.6 293.6 245.333 293.6 245C 293.6 244.556 294.067 244.4 295.4 244.4C 297.053 244.4 297.2 244.319 297.2 243.4C 297.2 242.815 297.43 242.4 297.753 242.4C 298.058 242.4 298.401 242.04 298.516 241.6C 298.631 241.16 299.012 240.8 299.363 240.8C 299.733 240.8 300 240.465 300 240C 300 239.319 300.267 239.2 301.8 239.2C 303.087 239.2 303.6 239.038 303.6 238.633C 303.6 238.321 303.709 237.781 303.843 237.433C 304.026 236.955 303.829 236.8 303.043 236.8C 302.267 236.8 302 236.595 302 236C 302 235.378 302.267 235.2 303.2 235.2C 304.133 235.2 304.4 235.378 304.4 236C 304.4 236.44 304.58 236.8 304.8 236.8C 305.02 236.8 305.2 236.62 305.2 236.4C 305.2 236.18 305.92 236 306.8 236C 308.24 236 308.4 235.9 308.4 235C 308.4 234.2 308.6 234 309.4 234C 310.022 234 310.4 233.773 310.4 233.4C 310.4 232.967 310.844 232.8 312 232.8C 313.333 232.8 313.6 232.667 313.6 232C 313.6 231.467 313.867 231.2 314.4 231.2C 314.987 231.2 315.2 230.933 315.2 230.2C 315.2 229.578 315.427 229.2 315.8 229.2C 316.133 229.2 316.4 228.844 316.4 228.4C 316.4 227.719 316.667 227.6 318.2 227.6C 319.733 227.6 320 227.481 320 226.8C 320 226.207 320.267 226 321.029 226C 322.546 226 323.2 225.105 323.2 223.029L323.2 223.029L323.2 221.2L325 221.2C 326.533 221.2 326.8 221.081 326.8 220.4C 326.8 219.813 327.067 219.6 327.8 219.6C 328.35 219.6 328.8 219.78 328.8 220C 328.8 220.22 329.07 220.4 329.4 220.4C 329.73 220.4 330 220.22 330 220C 330 219.78 330.36 219.6 330.8 219.6C 331.387 219.6 331.6 219.333 331.6 218.6C 331.6 217.7 331.76 217.6 333.2 217.6C 334.762 217.6 334.8 217.567 334.8 216.2C 334.8 215.067 334.952 214.8 335.6 214.8C 336.044 214.8 336.4 214.533 336.4 214.2C 336.4 213.794 336.806 213.6 337.653 213.6C 338.823 213.6 340.4 212.416 340.4 211.539C 340.4 211.352 341.03 211.2 341.8 211.2C 343.024 211.2 343.2 211.075 343.2 210.208C 343.2 209.459 343.47 209.148 344.296 208.94C 345.52 208.633 346.117 208.137 346.51 207.1C 346.722 206.54 347.257 206.4 349.187 206.4C 351.065 206.4 351.6 206.267 351.6 205.8C 351.6 205.427 351.222 205.2 350.6 205.2C 349.867 205.2 349.6 204.987 349.6 204.4C 349.6 203.476 351.493 203.253 352.32 204.08C 352.693 204.453 352.8 204.409 352.8 203.88C 352.8 203.421 353.125 203.2 353.8 203.2C 354.6 203.2 354.8 203 354.8 202.2C 354.8 201.467 355.013 201.2 355.6 201.2C 356.133 201.2 356.4 200.933 356.4 200.4C 356.4 199.733 356.667 199.6 358 199.6C 359.333 199.6 359.6 199.467 359.6 198.8C 359.6 198.267 359.867 198 360.4 198C 361.022 198 361.2 197.733 361.2 196.8C 361.2 195.867 361.022 195.6 360.4 195.6C 359.564 195.6 359.449 195.203 359.852 193.7C 360.212 192.357 362 192.44 362 193.8C 362 194.733 362.133 194.8 364 194.8C 365.867 194.8 366 194.733 366 193.8C 366 193 366.2 192.8 367 192.8C 367.588 192.8 368 192.57 368 192.243C 368 191.541 368.877 191.19 369.939 191.468C 370.679 191.662 372.8 190.121 372.8 189.39C 372.8 188.868 373.977 188 374.683 188C 375.09 188 375.683 187.64 376 187.2C 376.317 186.76 376.807 186.4 377.088 186.4C 377.37 186.4 377.6 186.085 377.6 185.7C 377.601 184.519 379.37 184.71 379.883 185.947M316 227.2C 316 228.267 315.867 228.4 314.8 228.4C 312.589 228.4 313.226 226.257 315.5 226.046C 315.799 226.019 316 226.482 316 227.2M284.8 249.2C 284.8 249.787 284.533 250 283.8 250C 283.067 250 282.8 249.787 282.8 249.2C 282.8 248.613 283.067 248.4 283.8 248.4C 284.533 248.4 284.8 248.613 284.8 249.2M258 267.4C 258 268.022 257.773 268.4 257.4 268.4C 256.8 268.4 256.563 267.17 257.067 266.667C 257.611 266.123 258 266.429 258 267.4M251.1 270.5C 250.848 271.257 249.6 271.364 249.6 270.629C 249.6 270.258 249.942 270 250.433 270C 250.922 270 251.198 270.207 251.1 270.5M240 281.6C 240 282.667 239.867 282.8 238.8 282.8C 237.733 282.8 237.6 282.667 237.6 281.6C 237.6 280.533 237.733 280.4 238.8 280.4C 239.867 280.4 240 280.533 240 281.6M287.357 297.833C 287.781 298.937 287.621 330.905 287.174 334.436C 286.772 337.614 285.936 340.946 285.152 342.495C 284.958 342.877 284.8 343.447 284.8 343.761C 284.8 344.076 284.665 344.393 284.5 344.467C 284.335 344.54 283.587 345.762 282.838 347.183C 282.09 348.603 281.145 350.122 280.738 350.558C 280.332 350.994 280 351.497 280 351.675C 280 351.854 279.66 352.34 279.245 352.755C 278.83 353.17 278.335 353.755 278.145 354.055C 277.453 355.148 272.193 359.558 268.572 362.081C 265.636 364.127 258.663 367.579 253.4 369.591C 250.98 370.517 248.64 371.427 248.2 371.615C 247.148 372.064 242.024 373.498 239 374.189C 237.68 374.491 235.79 374.948 234.8 375.205C 233.81 375.463 232.1 375.825 231 376.01C 229.9 376.196 227.56 376.61 225.8 376.932C 213.52 379.175 193.477 379.818 184.2 378.268C 182 377.9 178.94 377.402 177.4 377.16C 175.86 376.918 174.24 376.583 173.8 376.416C 173.36 376.248 171.56 375.821 169.8 375.467C 164.57 374.414 157.002 372.347 155.505 371.564C 155.123 371.364 154.623 371.2 154.392 371.2C 153.554 371.2 145.6 367.905 145.6 367.558C 145.6 367.361 145.172 367.2 144.649 367.2C 144.126 367.2 143.49 366.949 143.236 366.643C 142.981 366.337 142.194 365.848 141.487 365.558C 140.779 365.267 140.02 364.885 139.8 364.709C 138.813 363.918 136.333 362.4 136.028 362.4C 135.843 362.4 135.397 361.95 135.037 361.4C 134.676 360.85 134.116 360.4 133.791 360.4C 133.466 360.4 133.2 360.22 133.2 360C 133.2 359.78 133.715 359.6 134.345 359.6C 135.35 359.6 135.466 359.478 135.298 358.6C 135.133 357.739 135.253 357.6 136.153 357.6C 136.933 357.6 137.2 357.396 137.2 356.8C 137.2 356.356 137.467 356 137.8 356C 138.13 356 138.4 355.73 138.4 355.4C 138.4 354.956 138.867 354.8 140.2 354.8C 141.853 354.8 142 354.719 142 353.8C 142 353.067 142.213 352.8 142.8 352.8C 143.333 352.8 143.6 352.533 143.6 352C 143.6 351.333 143.867 351.2 145.2 351.2L145.2 351.2L146.8 351.2L146.8 349.6L146.8 348L149.2 348C 151.333 348 151.6 347.911 151.6 347.2C 151.6 346.613 151.867 346.4 152.6 346.4C 153.4 346.4 153.6 346.2 153.6 345.4C 153.6 344.667 153.813 344.4 154.4 344.4C 154.844 344.4 155.2 344.133 155.2 343.8C 155.2 343.367 155.644 343.2 156.8 343.2C 158.24 343.2 158.4 343.1 158.4 342.2C 158.4 341.467 158.613 341.2 159.2 341.2C 159.733 341.2 160 340.933 160 340.4C 160 339.813 160.267 339.6 161 339.6C 161.657 339.6 162 339.377 162 338.949C 162 338.413 162.284 338.343 163.6 338.554L163.6 338.554L165.2 338.809L165.2 336.805L165.2 334.8L166.6 334.8C 167.827 334.8 168 334.676 168 333.8C 168 332.881 168.147 332.8 169.8 332.8C 171.133 332.8 171.6 332.644 171.6 332.2C 171.6 331.767 172.044 331.6 173.2 331.6C 174.533 331.6 174.8 331.467 174.8 330.8C 174.8 330.267 175.067 330 175.6 330C 176.187 330 176.4 329.733 176.4 329C 176.4 328.2 176.6 328 177.4 328C 178.133 328 178.4 327.787 178.4 327.2C 178.4 326.756 178.667 326.4 179 326.4C 179.333 326.4 179.6 326.044 179.6 325.6C 179.6 324.919 179.867 324.8 181.4 324.8C 182.933 324.8 183.2 324.681 183.2 324C 183.2 323.467 183.467 323.2 184 323.2C 184.533 323.2 184.8 322.933 184.8 322.4C 184.8 321.733 185.067 321.6 186.4 321.6C 187.733 321.6 188 321.467 188 320.8C 188 320.163 188.267 320 189.312 320C 190.165 320 190.825 319.72 191.2 319.2C 191.517 318.76 192.007 318.4 192.288 318.4C 192.57 318.4 192.8 317.95 192.8 317.4C 192.8 316.6 193 316.4 193.8 316.4C 194.533 316.4 194.8 316.187 194.8 315.6C 194.8 314.933 195.067 314.8 196.4 314.8C 197.556 314.8 198 314.633 198 314.2C 198 313.867 198.356 313.6 198.8 313.6C 199.387 313.6 199.6 313.333 199.6 312.6C 199.6 311.867 199.813 311.6 200.4 311.6C 200.933 311.6 201.2 311.333 201.2 310.8C 201.2 310.133 201.467 310 202.8 310L202.8 310L204.4 310L204.4 308.4L204.4 306.8L206.8 306.8C 208.933 306.8 209.2 306.711 209.2 306C 209.2 305.413 209.467 305.2 210.2 305.2C 211 305.2 211.2 305 211.2 304.2C 211.2 303.467 211.413 303.2 212 303.2C 212.444 303.2 212.8 302.933 212.8 302.6C 212.8 302.227 213.178 302 213.8 302C 214.6 302 214.8 301.8 214.8 301C 214.8 300.029 214.882 300 217.573 300C 219.951 300 220.381 299.891 220.589 299.236C 220.864 298.369 222.475 298.21 235.4 297.772C 239.36 297.637 242.675 297.454 242.767 297.364C 243.361 296.779 287.13 297.24 287.357 297.833M188.725 315.9C 188.85 317.195 188.844 317.2 187.025 317.2C 184.981 317.2 184.785 316.819 186.1 315.401C 187.375 314.025 188.566 314.252 188.725 315.9M246.472 317.628C 239.3 319.039 232.8 327.108 232.8 334.6C 232.8 339.883 237.118 347.369 241.456 349.608C 242.085 349.933 242.69 350.29 242.8 350.403C 244.478 352.113 253.191 352.666 255.904 351.235C 256.287 351.033 257.3 350.562 258.156 350.188C 267.292 346.202 270.427 331.416 263.709 324C 258.456 318.202 253.278 316.288 246.472 317.628M184 319.6C 184 320.613 183.844 320.8 183 320.8C 181.888 320.8 181.756 320.379 182.496 319.195C 183.235 318.011 184 318.217 184 319.6M253.6 318.832C 257.473 319.719 259.947 321.369 263.279 325.287C 269.545 332.655 264.692 347.976 255.4 350.163C 252.132 350.932 249.791 351.114 247.865 350.75C 244.081 350.035 243.6 349.911 243.6 349.652C 243.6 349.511 243.077 349.164 242.437 348.88C 237.336 346.623 233.326 338.245 234.457 332.21C 235.295 327.741 239.453 321.247 241.5 321.209C 241.775 321.204 242 321.062 242 320.893C 242 319.438 250.023 318.012 253.6 318.832M170.8 329.6C 170.8 330.667 170.667 330.8 169.6 330.8C 168.533 330.8 168.4 330.667 168.4 329.6C 168.4 328.533 168.533 328.4 169.6 328.4C 170.667 328.4 170.8 328.533 170.8 329.6M139.2 351.428C 139.2 351.845 138.908 352.013 138.331 351.928C 137.051 351.739 136.914 350.8 138.167 350.8C 138.839 350.8 139.2 351.019 139.2 351.428M135.2 354.6C 135.2 355.222 134.973 355.6 134.6 355.6C 134.227 355.6 134 355.222 134 354.6C 134 353.978 134.227 353.6 134.6 353.6C 134.973 353.6 135.2 353.978 135.2 354.6M133.6 357.2C 133.6 358 133.4 358.4 133 358.4C 132.6 358.4 132.4 358 132.4 357.2C 132.4 356.4 132.6 356 133 356C 133.4 356 133.6 356.4 133.6 357.2" stroke="none" fill="#FBE262" fill-rule="nonzero" />
        <path d="M377.2 181.567C 377.2 182.058 377.458 182.4 377.829 182.4C 378.202 182.4 378.406 182.128 378.329 181.733C 378.135 180.73 377.2 180.592 377.2 181.567M377.6 185.7C 377.6 186.085 377.37 186.4 377.088 186.4C 376.807 186.4 376.317 186.76 376 187.2C 375.683 187.64 375.09 188 374.683 188C 373.977 188 372.8 188.868 372.8 189.39C 372.8 190.121 370.679 191.662 369.939 191.468C 368.877 191.19 368 191.541 368 192.243C 368 192.57 367.588 192.8 367 192.8C 366.2 192.8 366 193 366 193.8C 366 194.733 365.867 194.8 364 194.8C 362.133 194.8 362 194.733 362 193.8C 362 192.44 360.212 192.357 359.852 193.7C 359.449 195.203 359.564 195.6 360.4 195.6C 361.022 195.6 361.2 195.867 361.2 196.8C 361.2 197.733 361.022 198 360.4 198C 359.867 198 359.6 198.267 359.6 198.8C 359.6 199.467 359.333 199.6 358 199.6C 356.667 199.6 356.4 199.733 356.4 200.4C 356.4 200.933 356.133 201.2 355.6 201.2C 355.013 201.2 354.8 201.467 354.8 202.2C 354.8 203 354.6 203.2 353.8 203.2C 353.125 203.2 352.8 203.421 352.8 203.88C 352.8 204.409 352.693 204.453 352.32 204.08C 351.493 203.253 349.6 203.476 349.6 204.4C 349.6 204.987 349.867 205.2 350.6 205.2C 351.222 205.2 351.6 205.427 351.6 205.8C 351.6 206.267 351.065 206.4 349.187 206.4C 347.257 206.4 346.722 206.54 346.51 207.1C 346.117 208.137 345.52 208.633 344.296 208.94C 343.47 209.148 343.2 209.459 343.2 210.208C 343.2 211.075 343.024 211.2 341.8 211.2C 341.03 211.2 340.4 211.352 340.4 211.539C 340.4 212.416 338.823 213.6 337.653 213.6C 336.806 213.6 336.4 213.794 336.4 214.2C 336.4 214.533 336.044 214.8 335.6 214.8C 334.952 214.8 334.8 215.067 334.8 216.2C 334.8 217.567 334.762 217.6 333.2 217.6C 331.76 217.6 331.6 217.7 331.6 218.6C 331.6 219.333 331.387 219.6 330.8 219.6C 330.36 219.6 330 219.78 330 220C 330 220.22 329.73 220.4 329.4 220.4C 329.07 220.4 328.8 220.22 328.8 220C 328.8 219.78 328.35 219.6 327.8 219.6C 327.067 219.6 326.8 219.813 326.8 220.4C 326.8 221.081 326.533 221.2 325 221.2L325 221.2L323.2 221.2L323.2 223.029C 323.2 225.105 322.546 226 321.029 226C 320.267 226 320 226.207 320 226.8C 320 227.481 319.733 227.6 318.2 227.6C 316.667 227.6 316.4 227.719 316.4 228.4C 316.4 228.844 316.133 229.2 315.8 229.2C 315.427 229.2 315.2 229.578 315.2 230.2C 315.2 230.933 314.987 231.2 314.4 231.2C 313.867 231.2 313.6 231.467 313.6 232C 313.6 232.667 313.333 232.8 312 232.8C 310.844 232.8 310.4 232.967 310.4 233.4C 310.4 233.773 310.022 234 309.4 234C 308.6 234 308.4 234.2 308.4 235C 308.4 235.9 308.24 236 306.8 236C 305.92 236 305.2 236.18 305.2 236.4C 305.2 236.62 305.02 236.8 304.8 236.8C 304.58 236.8 304.4 236.44 304.4 236C 304.4 235.378 304.133 235.2 303.2 235.2C 302.267 235.2 302 235.378 302 236C 302 236.595 302.267 236.8 303.043 236.8C 303.829 236.8 304.026 236.955 303.843 237.433C 303.709 237.781 303.6 238.321 303.6 238.633C 303.6 239.038 303.087 239.2 301.8 239.2C 300.267 239.2 300 239.319 300 240C 300 240.465 299.733 240.8 299.363 240.8C 299.012 240.8 298.631 241.16 298.516 241.6C 298.401 242.04 298.058 242.4 297.753 242.4C 297.43 242.4 297.2 242.815 297.2 243.4C 297.2 244.319 297.053 244.4 295.4 244.4C 294.067 244.4 293.6 244.556 293.6 245C 293.6 245.333 293.244 245.6 292.8 245.6C 292.213 245.6 292 245.867 292 246.6C 292 247.5 291.84 247.6 290.4 247.6C 289.067 247.6 288.8 247.733 288.8 248.4C 288.8 248.987 288.533 249.2 287.8 249.2C 287.178 249.2 286.8 249.427 286.8 249.8C 286.8 250.13 286.53 250.4 286.2 250.4C 285.827 250.4 285.6 250.778 285.6 251.4C 285.6 252.319 285.453 252.4 283.8 252.4C 282.267 252.4 282 252.519 282 253.2C 282 253.733 281.733 254 281.2 254C 280.613 254 280.4 254.267 280.4 255C 280.4 255.9 280.24 256 278.8 256C 277.238 256 277.2 256.033 277.2 257.4C 277.2 258.627 277.076 258.8 276.2 258.8C 275.4 258.8 275.2 259 275.2 259.8C 275.2 260.756 275.093 260.8 272.8 260.8C 270.667 260.8 270.4 260.889 270.4 261.6C 270.4 262.133 270.133 262.4 269.6 262.4C 269.067 262.4 268.8 262.667 268.8 263.2C 268.8 263.733 268.533 264 268 264C 267.467 264 267.2 264.267 267.2 264.8C 267.2 265.333 266.933 265.6 266.4 265.6C 265.867 265.6 265.6 265.867 265.6 266.4C 265.6 267.067 265.333 267.2 264 267.2C 262.667 267.2 262.4 267.333 262.4 268C 262.4 268.5 262.133 268.8 261.688 268.8C 261.297 268.8 260.717 269.16 260.4 269.6C 259.962 270.208 259.365 270.4 257.912 270.4C 256.139 270.4 256 270.473 256 271.4C 256 272.2 255.8 272.4 255 272.4C 254.267 272.4 254 272.613 254 273.2C 254 273.733 253.733 274 253.2 274C 252.76 274 252.4 274.257 252.4 274.572C 252.4 274.887 251.995 275.202 251.5 275.272C 250.922 275.354 250.554 275.722 250.472 276.3C 250.402 276.795 250.087 277.2 249.772 277.2C 249.457 277.2 249.2 277.56 249.2 278C 249.2 278.44 249.02 278.8 248.8 278.8C 248.58 278.8 248.4 278.44 248.4 278C 248.4 277.319 248.133 277.2 246.6 277.2C 244.856 277.2 244.122 277.934 245.2 278.6C 245.826 278.987 245.669 280.4 245 280.4C 244.667 280.4 244.4 280.756 244.4 281.2C 244.4 281.881 244.133 282 242.6 282C 241.61 282 240.8 282.161 240.8 282.357C 240.8 283.177 279.484 283.963 314.2 283.849L314.2 283.849L340.2 283.764L343.821 282.538C 349.168 280.728 353.015 278.513 356.541 275.215C 358.788 273.114 362.4 268.692 362.4 268.043C 362.4 267.799 362.55 267.6 362.734 267.6C 363.643 267.6 368.244 258.463 370.992 251.2C 372.032 248.45 373.315 245.073 373.842 243.696C 374.369 242.318 374.8 240.833 374.8 240.396C 374.8 239.958 374.98 239.6 375.2 239.6C 375.42 239.6 375.604 239.195 375.608 238.7C 375.613 238.205 376.062 236.54 376.607 235C 377.151 233.46 377.597 231.737 377.598 231.171C 377.599 230.605 377.87 229.345 378.201 228.371C 381.681 218.111 381.929 184.752 378.523 184.947C 377.931 184.981 377.6 185.251 377.6 185.7M314.3 226.276C 312.988 226.619 313.407 228.4 314.8 228.4C 315.867 228.4 316 228.267 316 227.2C 316 226.011 315.777 225.89 314.3 226.276M282.8 249.2C 282.8 249.787 283.067 250 283.8 250C 284.533 250 284.8 249.787 284.8 249.2C 284.8 248.613 284.533 248.4 283.8 248.4C 283.067 248.4 282.8 248.613 282.8 249.2M257.067 266.667C 256.563 267.17 256.8 268.4 257.4 268.4C 257.773 268.4 258 268.022 258 267.4C 258 266.429 257.611 266.123 257.067 266.667M249.6 270.629C 249.6 271.002 249.872 271.206 250.267 271.129C 251.27 270.935 251.408 270 250.433 270C 249.942 270 249.6 270.258 249.6 270.629M237.6 281.6C 237.6 282.667 237.733 282.8 238.8 282.8C 239.867 282.8 240 282.667 240 281.6C 240 280.533 239.867 280.4 238.8 280.4C 237.733 280.4 237.6 280.533 237.6 281.6M242.767 297.364C 242.675 297.454 239.36 297.637 235.4 297.772C 222.475 298.21 220.864 298.369 220.589 299.236C 220.381 299.891 219.951 300 217.573 300C 214.882 300 214.8 300.029 214.8 301C 214.8 301.8 214.6 302 213.8 302C 213.178 302 212.8 302.227 212.8 302.6C 212.8 302.933 212.444 303.2 212 303.2C 211.413 303.2 211.2 303.467 211.2 304.2C 211.2 305 211 305.2 210.2 305.2C 209.467 305.2 209.2 305.413 209.2 306C 209.2 306.711 208.933 306.8 206.8 306.8L206.8 306.8L204.4 306.8L204.4 308.4L204.4 310L202.8 310C 201.467 310 201.2 310.133 201.2 310.8C 201.2 311.333 200.933 311.6 200.4 311.6C 199.813 311.6 199.6 311.867 199.6 312.6C 199.6 313.333 199.387 313.6 198.8 313.6C 198.356 313.6 198 313.867 198 314.2C 198 314.633 197.556 314.8 196.4 314.8C 195.067 314.8 194.8 314.933 194.8 315.6C 194.8 316.187 194.533 316.4 193.8 316.4C 193 316.4 192.8 316.6 192.8 317.4C 192.8 317.95 192.57 318.4 192.288 318.4C 192.007 318.4 191.517 318.76 191.2 319.2C 190.825 319.72 190.165 320 189.312 320C 188.267 320 188 320.163 188 320.8C 188 321.467 187.733 321.6 186.4 321.6C 185.067 321.6 184.8 321.733 184.8 322.4C 184.8 322.933 184.533 323.2 184 323.2C 183.467 323.2 183.2 323.467 183.2 324C 183.2 324.681 182.933 324.8 181.4 324.8C 179.867 324.8 179.6 324.919 179.6 325.6C 179.6 326.044 179.333 326.4 179 326.4C 178.667 326.4 178.4 326.756 178.4 327.2C 178.4 327.787 178.133 328 177.4 328C 176.6 328 176.4 328.2 176.4 329C 176.4 329.733 176.187 330 175.6 330C 175.067 330 174.8 330.267 174.8 330.8C 174.8 331.467 174.533 331.6 173.2 331.6C 172.044 331.6 171.6 331.767 171.6 332.2C 171.6 332.644 171.133 332.8 169.8 332.8C 168.147 332.8 168 332.881 168 333.8C 168 334.676 167.827 334.8 166.6 334.8L166.6 334.8L165.2 334.8L165.2 336.805L165.2 338.809L163.6 338.554C 162.284 338.343 162 338.413 162 338.949C 162 339.377 161.657 339.6 161 339.6C 160.267 339.6 160 339.813 160 340.4C 160 340.933 159.733 341.2 159.2 341.2C 158.613 341.2 158.4 341.467 158.4 342.2C 158.4 343.1 158.24 343.2 156.8 343.2C 155.644 343.2 155.2 343.367 155.2 343.8C 155.2 344.133 154.844 344.4 154.4 344.4C 153.813 344.4 153.6 344.667 153.6 345.4C 153.6 346.2 153.4 346.4 152.6 346.4C 151.867 346.4 151.6 346.613 151.6 347.2C 151.6 347.911 151.333 348 149.2 348L149.2 348L146.8 348L146.8 349.6L146.8 351.2L145.2 351.2C 143.867 351.2 143.6 351.333 143.6 352C 143.6 352.533 143.333 352.8 142.8 352.8C 142.213 352.8 142 353.067 142 353.8C 142 354.719 141.853 354.8 140.2 354.8C 138.867 354.8 138.4 354.956 138.4 355.4C 138.4 355.73 138.13 356 137.8 356C 137.467 356 137.2 356.356 137.2 356.8C 137.2 357.396 136.933 357.6 136.153 357.6C 135.253 357.6 135.133 357.739 135.298 358.6C 135.466 359.478 135.35 359.6 134.345 359.6C 133.715 359.6 133.2 359.78 133.2 360C 133.2 360.22 133.466 360.4 133.791 360.4C 134.116 360.4 134.676 360.85 135.037 361.4C 135.397 361.95 135.843 362.4 136.028 362.4C 136.333 362.4 138.813 363.918 139.8 364.709C 140.02 364.885 140.779 365.267 141.487 365.558C 142.194 365.848 142.981 366.337 143.236 366.643C 143.49 366.949 144.126 367.2 144.649 367.2C 145.172 367.2 145.6 367.361 145.6 367.558C 145.6 367.905 153.554 371.2 154.392 371.2C 154.623 371.2 155.123 371.364 155.505 371.564C 157.002 372.347 164.57 374.414 169.8 375.467C 171.56 375.821 173.36 376.248 173.8 376.416C 174.24 376.583 175.86 376.918 177.4 377.16C 178.94 377.402 182 377.9 184.2 378.268C 193.477 379.818 213.52 379.175 225.8 376.932C 227.56 376.61 229.9 376.196 231 376.01C 232.1 375.825 233.81 375.463 234.8 375.205C 235.79 374.948 237.68 374.491 239 374.189C 242.024 373.498 247.148 372.064 248.2 371.615C 248.64 371.427 250.98 370.517 253.4 369.591C 258.663 367.579 265.636 364.127 268.572 362.081C 272.193 359.558 277.453 355.148 278.145 354.055C 278.335 353.755 278.83 353.17 279.245 352.755C 279.66 352.34 280 351.854 280 351.675C 280 351.497 280.332 350.994 280.738 350.558C 281.145 350.122 282.09 348.603 282.838 347.183C 283.587 345.762 284.335 344.54 284.5 344.467C 284.665 344.393 284.8 344.076 284.8 343.761C 284.8 343.447 284.958 342.877 285.152 342.495C 285.936 340.946 286.772 337.614 287.174 334.436C 287.621 330.905 287.781 298.937 287.357 297.833C 287.13 297.24 243.361 296.779 242.767 297.364M186.1 315.401C 184.785 316.819 184.981 317.2 187.025 317.2C 188.844 317.2 188.85 317.195 188.725 315.9C 188.566 314.252 187.375 314.025 186.1 315.401M253.326 317.586C 257.303 318.237 259.993 319.899 263.709 324C 270.427 331.416 267.292 346.202 258.156 350.188C 257.3 350.562 256.287 351.033 255.904 351.235C 253.191 352.666 244.478 352.113 242.8 350.403C 242.69 350.29 242.085 349.933 241.456 349.608C 239.862 348.785 236.593 345.399 235.356 343.29C 227.909 330.581 238.672 315.186 253.326 317.586M182.496 319.195C 181.756 320.379 181.888 320.8 183 320.8C 183.844 320.8 184 320.613 184 319.6C 184 318.217 183.235 318.011 182.496 319.195M168.4 329.6C 168.4 330.667 168.533 330.8 169.6 330.8C 170.667 330.8 170.8 330.667 170.8 329.6C 170.8 328.533 170.667 328.4 169.6 328.4C 168.533 328.4 168.4 328.533 168.4 329.6M137.298 351.3C 137.551 352.069 139.2 352.18 139.2 351.428C 139.2 351.019 138.839 350.8 138.167 350.8C 137.519 350.8 137.195 350.987 137.298 351.3M134 354.6C 134 355.222 134.227 355.6 134.6 355.6C 134.973 355.6 135.2 355.222 135.2 354.6C 135.2 353.978 134.973 353.6 134.6 353.6C 134.227 353.6 134 353.978 134 354.6M132.4 357.2C 132.4 358 132.6 358.4 133 358.4C 133.4 358.4 133.6 358 133.6 357.2C 133.6 356.4 133.4 356 133 356C 132.6 356 132.4 356.4 132.4 357.2" stroke="none" fill="#FBD442" fill-rule="nonzero" />
        <path d="M183 6.4C 182.857 6.631 180.721 6.8 177.953 6.8C 175.313 6.8 173.236 6.935 173.337 7.1C 173.438 7.265 171.887 7.405 169.89 7.411C 167.393 7.419 166.208 7.575 166.096 7.911C 165.989 8.233 164.996 8.4 163.19 8.4C 161.682 8.4 160.336 8.58 160.2 8.8C 160.064 9.02 158.883 9.2 157.576 9.2C 156.259 9.2 155.2 9.378 155.2 9.6C 155.2 9.82 154.21 10 153 10C 151.79 10 150.8 10.18 150.8 10.4C 150.8 10.62 150.08 10.8 149.2 10.8C 148.32 10.8 147.6 10.974 147.6 11.187C 147.6 11.401 147.375 11.491 147.1 11.389C 146.329 11.103 144.188 11.834 144.3 12.345C 144.363 12.632 143.742 12.8 142.624 12.8C 141.647 12.8 140.741 12.972 140.611 13.182C 140.482 13.391 139.297 13.685 137.979 13.834C 136.661 13.983 135.486 14.262 135.367 14.453C 135.249 14.644 134.623 14.8 133.976 14.8C 133.329 14.8 132.8 14.98 132.8 15.2C 132.8 15.42 132.44 15.6 132 15.6C 131.56 15.6 131.245 15.821 131.3 16.091C 131.355 16.36 130.995 16.643 130.5 16.718C 130.005 16.794 129.6 17.035 129.6 17.255C 129.6 17.474 129.24 17.54 128.8 17.4C 128.216 17.215 128 17.328 128 17.82C 128 18.296 127.766 18.432 127.2 18.284C 126.76 18.169 126.4 18.242 126.4 18.447C 126.4 18.652 125.945 18.993 125.39 19.204C 124.834 19.415 124.275 19.861 124.147 20.194C 124.019 20.527 123.608 20.8 123.233 20.8C 122.858 20.8 122.164 21.16 121.692 21.6C 121.22 22.04 120.646 22.4 120.417 22.4C 120.188 22.4 120 22.58 120 22.8C 120 23.02 119.807 23.2 119.571 23.2C 119.095 23.2 118 24.188 118 24.617C 118 25.008 115.091 27.624 114.885 27.419C 114.543 27.076 113.726 28.194 113.882 28.79C 113.97 29.128 113.718 29.772 113.321 30.222C 112.313 31.367 111.6 32.681 111.6 33.395C 111.6 33.728 111.35 34 111.044 34C 110.731 34 110.256 34.785 109.957 35.8C 109.665 36.79 109.285 37.6 109.113 37.6C 108.941 37.6 108.8 37.949 108.8 38.376C 108.8 38.803 108.638 39.253 108.441 39.375C 108.243 39.497 107.94 40.903 107.768 42.498C 107.523 44.76 107.4 45.135 107.208 44.2C 106.925 42.811 106.4 46.613 106.4 50.059C 106.4 51.126 106.22 52 106 52C 105.738 52 105.6 60.052 105.6 75.357C 105.6 96.287 105.534 98.74 104.967 98.957C 104.619 99.091 97.959 99.2 90.167 99.2C 80.989 99.2 76 99.341 76 99.6C 76 99.839 74.467 100 72.2 100C 69.933 100 68.4 100.161 68.4 100.4C 68.4 100.62 67.5 100.8 66.4 100.8C 65.3 100.8 64.4 100.98 64.4 101.2C 64.4 101.42 64.043 101.6 63.606 101.6C 62.208 101.6 59.011 102.569 58.68 103.093C 58.504 103.372 57.829 103.6 57.18 103.6C 56.531 103.6 56 103.78 56 104C 56 104.22 55.865 104.37 55.7 104.333C 54.656 104.098 52.054 105.086 51.141 106.063C 50.557 106.688 49.786 107.2 49.427 107.2C 49.068 107.2 48.668 107.478 48.538 107.817C 48.408 108.156 47.979 108.381 47.586 108.317C 47.192 108.253 46.522 108.6 46.097 109.089C 45.61 109.65 45.007 109.917 44.463 109.812C 43.888 109.701 43.6 109.847 43.6 110.247C 43.6 110.577 43.42 110.736 43.2 110.6C 42.98 110.464 42.8 110.633 42.8 110.976C 42.8 111.319 42.622 111.6 42.405 111.6C 42.033 111.6 40.985 112.36 39.784 113.5C 39.494 113.775 39.066 114 38.833 114C 38.264 114 36.8 115.276 36.999 115.598C 37.086 115.739 36.786 116.112 36.332 116.427C 34.116 117.966 33.567 118.536 33.775 119.078C 33.897 119.398 33.728 119.929 33.399 120.258C 33.069 120.588 32.8 120.709 32.8 120.529C 32.799 120.348 32.376 120.692 31.859 121.293C 31.342 121.894 30.787 122.254 30.626 122.093C 30.465 121.932 30.387 121.98 30.452 122.2C 30.517 122.42 30.345 123.005 30.071 123.5C 29.796 123.995 29.681 124.4 29.814 124.4C 29.948 124.4 29.787 124.67 29.457 125C 29.127 125.33 28.664 125.6 28.429 125.6C 28.193 125.6 28 125.926 28 126.325C 28 126.723 27.64 127.436 27.2 127.908C 26.76 128.38 26.4 128.954 26.4 129.183C 26.4 129.412 26.243 129.6 26.05 129.6C 25.858 129.6 25.59 130.152 25.455 130.827C 25.302 131.591 25.041 131.949 24.762 131.776C 24.458 131.589 24.401 131.773 24.584 132.35C 24.781 132.97 24.684 133.2 24.227 133.2C 23.882 133.2 23.638 133.335 23.685 133.5C 23.732 133.665 23.545 134.205 23.271 134.7C 22.996 135.195 22.904 135.6 23.066 135.6C 23.228 135.6 23.144 135.816 22.88 136.08C 22.616 136.344 22.4 136.865 22.4 137.237C 22.4 137.61 22.111 138.025 21.758 138.161C 21.4 138.298 21.216 138.664 21.341 138.991C 21.464 139.312 21.393 139.681 21.183 139.811C 20.972 139.941 20.8 140.467 20.8 140.981C 20.8 141.494 20.53 142.018 20.2 142.145C 19.849 142.279 19.6 142.879 19.6 143.587C 19.6 144.254 19.443 144.8 19.252 144.8C 19.06 144.8 18.781 145.88 18.632 147.2C 18.482 148.52 18.189 149.6 17.98 149.6C 17.771 149.6 17.6 150.68 17.6 152C 17.6 153.333 17.422 154.4 17.2 154.4C 16.979 154.4 16.8 155.452 16.8 156.757C 16.8 158.484 16.639 159.176 16.2 159.345C 15.775 159.508 15.6 160.17 15.6 161.611C 15.6 162.867 15.447 163.552 15.2 163.4C 14.952 163.247 14.8 163.988 14.8 165.353C 14.8 166.563 14.62 167.664 14.4 167.8C 14.18 167.936 14 169.297 14 170.824C 14 172.408 13.828 173.6 13.6 173.6C 13.372 173.6 13.2 174.783 13.2 176.35C 13.2 179.629 12.844 181.674 12.329 181.356C 12.101 181.215 12.003 183.183 12.077 186.363C 12.145 189.244 12.04 191.654 11.845 191.719C 11.65 191.784 11.544 193.808 11.609 196.218C 11.933 208.176 12.073 210.8 12.385 210.8C 12.771 210.8 13.148 213.419 13.291 217.1C 13.345 218.475 13.511 219.6 13.66 219.6C 13.809 219.6 14.033 220.725 14.156 222.1C 14.652 227.636 14.89 229.2 15.237 229.2C 15.437 229.2 15.6 230.1 15.6 231.2C 15.6 232.3 15.757 233.2 15.949 233.2C 16.141 233.2 16.388 234.137 16.498 235.283C 16.608 236.429 16.901 237.434 17.149 237.516C 17.402 237.601 17.6 238.53 17.6 239.633C 17.6 240.715 17.78 241.6 18 241.6C 18.22 241.6 18.4 242.309 18.4 243.176C 18.4 244.043 18.58 244.864 18.8 245C 19.02 245.136 19.2 245.755 19.2 246.375C 19.2 246.995 19.479 248.171 19.821 248.988C 20.162 249.806 20.368 250.683 20.278 250.937C 20.188 251.192 20.423 251.85 20.8 252.4C 21.443 253.337 21.73 254.216 22.27 256.9C 22.391 257.505 22.65 258 22.845 258C 23.04 258 23.2 258.36 23.2 258.8C 23.2 259.24 23.359 259.6 23.553 259.6C 23.748 259.6 24.015 259.915 24.148 260.3C 24.28 260.685 24.721 261.54 25.128 262.2C 25.534 262.86 25.987 263.881 26.133 264.469C 26.28 265.057 26.823 266.047 27.34 266.669C 27.858 267.291 28.203 268.025 28.107 268.3C 28.012 268.575 28.218 268.8 28.567 268.8C 28.933 268.8 29.2 269.137 29.2 269.6C 29.2 270.04 29.399 270.4 29.643 270.4C 29.886 270.4 29.986 270.661 29.863 270.98C 29.707 271.386 29.833 271.486 30.285 271.312C 30.789 271.119 30.879 271.253 30.702 271.933C 30.575 272.418 30.661 272.8 30.897 272.8C 31.409 272.8 34.031 275.443 33.958 275.885C 33.85 276.53 34.007 277.326 34.203 277.131C 34.314 277.019 35.154 277.619 36.069 278.464C 36.984 279.309 37.883 280 38.067 280C 38.25 280 38.4 280.27 38.4 280.6C 38.4 280.93 38.578 281.2 38.795 281.2C 39.186 281.2 39.85 281.696 41.934 283.547C 42.52 284.068 42.73 284.348 42.4 284.17C 41.884 283.892 41.877 283.941 42.345 284.519C 42.645 284.889 43.055 285.09 43.256 284.966C 43.656 284.718 47.198 286.815 47.199 287.3C 47.2 287.465 47.474 287.6 47.808 287.6C 48.142 287.6 49.129 288.05 50 288.6C 50.871 289.15 51.858 289.6 52.192 289.6C 52.526 289.6 52.8 289.757 52.8 289.949C 52.8 290.229 55.171 290.83 56 290.761C 56.11 290.751 56.74 290.953 57.4 291.21C 59.004 291.832 59.987 291.99 63.996 292.272C 66.212 292.428 67.535 292.705 67.802 293.07C 68.142 293.536 71.298 293.626 86.66 293.608C 103.207 293.589 105.135 293.653 105.355 294.226C 105.49 294.578 105.6 304.301 105.6 315.833C 105.6 329.544 105.738 336.8 106 336.8C 106.22 336.8 106.4 337.706 106.4 338.813C 106.4 340.27 106.573 340.891 107.026 341.065C 107.432 341.221 107.629 341.744 107.586 342.553C 107.482 344.491 107.566 344.868 108.035 344.578C 108.319 344.403 108.427 344.719 108.346 345.494C 108.268 346.23 108.49 346.947 108.93 347.387C 109.32 347.777 109.746 348.63 109.877 349.283C 110.007 349.935 110.342 350.556 110.621 350.663C 110.9 350.77 111.237 351.295 111.372 351.829C 111.506 352.363 111.792 352.8 112.008 352.8C 112.223 352.8 112.4 353.07 112.4 353.4C 112.4 353.73 112.591 354 112.824 354C 113.057 354 113.143 354.169 113.015 354.375C 112.888 354.582 113.037 354.897 113.347 355.075C 113.657 355.254 113.976 355.725 114.055 356.121C 114.135 356.518 114.341 356.826 114.514 356.807C 115.031 356.749 117.992 360.365 118.007 361.073C 118.017 361.563 119.844 363.2 120.38 363.2C 120.641 363.2 120.72 363.421 120.559 363.7C 120.401 363.975 120.42 364.066 120.601 363.902C 121.108 363.442 124.8 366.334 124.8 367.192C 124.8 367.439 125.43 367.904 126.2 368.226C 126.97 368.548 127.6 368.999 127.6 369.229C 127.6 369.459 127.78 369.536 128 369.4C 128.22 369.264 128.4 369.343 128.4 369.576C 128.4 369.809 128.655 370 128.967 370C 129.278 370 129.922 370.495 130.396 371.1C 130.871 371.705 131.145 371.975 131.006 371.7C 130.867 371.425 130.943 371.2 131.176 371.2C 131.409 371.2 131.6 371.353 131.6 371.54C 131.6 371.727 132.41 372.213 133.4 372.622C 134.39 373.03 135.2 373.474 135.2 373.607C 135.2 373.741 135.82 374.094 136.578 374.391C 137.336 374.689 137.921 375.112 137.878 375.332C 137.835 375.552 138.34 375.864 139 376.025C 140.979 376.507 145.39 378.178 145.533 378.5C 145.607 378.665 146.372 378.8 147.233 378.8C 148.359 378.8 148.8 378.969 148.8 379.4C 148.8 379.73 149.149 380 149.576 380C 150.003 380 150.464 380.18 150.6 380.4C 150.736 380.62 151.377 380.8 152.024 380.8C 152.671 380.8 153.2 380.98 153.2 381.2C 153.2 381.42 153.819 381.6 154.576 381.6C 155.333 381.6 156.054 381.763 156.177 381.963C 156.3 382.162 157.346 382.454 158.5 382.612C 161.119 382.97 162.519 383.484 162.215 383.976C 162.076 384.201 162.566 384.258 163.431 384.117C 164.427 383.956 164.985 384.051 165.214 384.423C 165.433 384.777 166.165 384.926 167.334 384.854C 168.315 384.794 169.237 384.937 169.383 385.172C 169.528 385.408 170.267 385.6 171.024 385.6C 171.781 385.6 172.4 385.765 172.4 385.966C 172.4 386.167 173.525 386.433 174.9 386.556C 176.275 386.679 178.982 386.919 180.915 387.09C 182.989 387.273 184.557 387.605 184.739 387.9C 185.225 388.689 218.252 388.562 218.556 387.77C 218.714 387.358 219.493 387.2 221.364 387.2C 222.788 387.2 224.064 387.02 224.2 386.8C 224.336 386.58 225.697 386.4 227.224 386.4C 228.808 386.4 230 386.228 230 386C 230 385.78 230.72 385.6 231.6 385.6C 232.48 385.6 233.2 385.42 233.2 385.2C 233.2 384.98 234.1 384.8 235.2 384.8C 236.415 384.8 237.2 384.623 237.2 384.35C 237.2 384.063 237.636 383.987 238.4 384.14C 239.06 384.272 239.6 384.241 239.6 384.07C 239.6 383.596 243.671 382.353 245.667 382.218C 245.813 382.208 246.068 382.065 246.233 381.9C 246.398 381.735 246.896 381.6 247.338 381.6C 248.265 381.6 250.901 380.736 251.205 380.332C 251.318 380.182 252.128 380.001 253.005 379.93C 254.017 379.847 254.563 379.617 254.5 379.3C 254.436 378.978 254.887 378.8 255.767 378.8C 256.518 378.8 257.195 378.616 257.269 378.392C 257.344 378.167 257.974 377.942 258.668 377.892C 259.363 377.841 259.857 377.726 259.767 377.635C 259.563 377.429 262.225 376.226 263.7 375.859C 264.305 375.708 264.8 375.408 264.8 375.192C 264.8 374.977 265.07 374.8 265.4 374.8C 265.73 374.8 266 374.62 266 374.4C 266 374.18 266.36 374 266.8 374C 267.24 374 267.6 373.82 267.6 373.6C 267.6 373.38 267.968 373.2 268.417 373.2C 268.866 373.2 269.451 373.016 269.717 372.792C 271.93 370.924 272.663 370.401 273.071 370.4C 273.331 370.4 273.824 370.119 274.168 369.774C 274.512 369.43 274.951 369.246 275.144 369.365C 275.337 369.484 275.902 369.05 276.4 368.4C 276.898 367.75 277.443 367.303 277.611 367.407C 277.779 367.511 278.027 367.308 278.161 366.956C 278.306 366.58 278.661 366.415 279.024 366.554C 279.364 366.684 279.541 366.628 279.419 366.43C 279.296 366.232 279.856 365.469 280.663 364.735C 281.47 364.001 283.032 362.464 284.135 361.32C 285.238 360.175 286.316 359.348 286.532 359.481C 286.75 359.617 286.797 359.518 286.636 359.259C 286.476 358.999 286.625 358.689 286.975 358.554C 287.319 358.422 287.603 357.929 287.606 357.457C 287.611 356.757 287.683 356.71 288 357.2C 288.321 357.696 288.389 357.66 288.394 356.993C 288.397 356.548 288.895 355.879 289.5 355.503C 290.105 355.128 290.369 354.816 290.086 354.811C 289.753 354.804 289.929 354.273 290.586 353.307C 291.144 352.486 291.6 351.586 291.6 351.307C 291.6 351.028 291.78 350.8 292 350.8C 292.22 350.8 292.4 350.462 292.4 350.049C 292.4 349.636 292.67 349.074 293 348.8C 293.33 348.526 293.6 348.054 293.6 347.751C 293.6 347.448 293.78 347.2 294 347.2C 294.22 347.2 294.4 346.57 294.4 345.8C 294.4 345.03 294.562 344.4 294.76 344.4C 294.958 344.4 295.221 343.635 295.345 342.7C 296.014 337.653 296.353 334.944 296.375 334.476C 296.389 334.188 296.535 334.036 296.7 334.138C 296.865 334.24 296.952 325.341 296.893 314.362C 296.817 300.3 296.913 294.4 297.216 294.4C 297.453 294.4 297.536 294.22 297.4 294C 297.236 293.735 303.929 293.6 317.176 293.6C 335.126 293.6 337.2 293.535 337.2 292.97C 337.2 292.445 337.661 292.363 339.993 292.477C 341.981 292.573 342.842 292.467 342.981 292.106C 343.098 291.801 343.896 291.6 344.993 291.6C 345.993 291.6 347.168 291.42 347.605 291.2C 348.042 290.98 348.767 290.614 349.216 290.386C 349.665 290.159 350.19 290.07 350.382 290.189C 350.574 290.308 350.8 290.201 350.883 289.952C 350.965 289.704 351.518 289.5 352.109 289.5C 352.701 289.5 353.091 289.348 352.976 289.162C 352.861 288.976 353.223 288.709 353.781 288.569C 354.338 288.429 354.695 288.154 354.574 287.957C 354.452 287.761 354.723 287.6 355.176 287.6C 355.629 287.6 356 287.42 356 287.2C 356 286.98 356.294 286.8 356.653 286.8C 357.012 286.8 357.597 286.48 357.953 286.089C 358.309 285.697 359.41 284.754 360.4 283.992C 361.39 283.23 362.26 282.47 362.333 282.303C 362.407 282.136 362.722 282 363.033 282C 363.345 282 363.6 281.82 363.6 281.6C 363.6 281.38 363.791 281.2 364.024 281.2C 364.257 281.2 364.319 281.408 364.162 281.662C 363.989 281.941 364.052 282.015 364.321 281.849C 364.565 281.698 364.666 281.316 364.545 281.001C 364.413 280.658 365.063 279.7 366.162 278.616C 367.173 277.62 368 276.706 368 276.585C 368 276.337 368.547 275.649 370.022 274.044C 370.584 273.432 370.965 272.694 370.867 272.402C 370.75 272.049 370.909 271.956 371.345 272.124C 371.768 272.286 372 272.167 372 271.787C 372 271.464 372.191 271.2 372.424 271.2C 372.657 271.2 372.745 271.035 372.62 270.832C 372.495 270.63 372.664 270.193 372.996 269.861C 373.328 269.529 373.6 268.977 373.6 268.635C 373.6 267.961 375.966 263.885 376.484 263.667C 376.658 263.593 376.8 263.188 376.8 262.767C 376.8 262.345 376.98 262 377.2 262C 377.42 262 377.6 261.46 377.6 260.8C 377.6 260.14 377.78 259.6 378 259.6C 378.22 259.6 378.4 259.352 378.4 259.049C 378.4 258.746 378.674 258.271 379.009 257.993C 379.344 257.715 379.518 257.171 379.395 256.786C 379.273 256.4 379.467 255.79 379.826 255.431C 380.185 255.072 380.577 254.047 380.697 253.154C 380.817 252.262 381.139 251.445 381.413 251.34C 381.687 251.234 381.82 250.8 381.709 250.374C 381.598 249.948 381.708 249.6 381.953 249.6C 382.206 249.6 382.4 248.92 382.4 248.033C 382.4 247.172 382.604 246.399 382.853 246.316C 383.103 246.232 383.328 245.603 383.353 244.917C 383.379 244.23 383.58 243.698 383.8 243.734C 384.02 243.77 384.257 243.305 384.327 242.7C 384.396 242.095 384.621 241.6 384.827 241.6C 385.032 241.6 385.2 240.826 385.2 239.88C 385.2 238.934 385.361 237.989 385.557 237.78C 385.985 237.325 387.2 232.054 387.2 230.654C 387.2 230.111 387.409 229.597 387.665 229.512C 388.202 229.333 388.493 228.313 388.496 226.6C 388.497 225.94 388.645 225.306 388.825 225.191C 389.005 225.077 389.192 223.862 389.241 222.491C 389.291 221.121 389.455 220 389.607 220C 389.759 220 390.089 217.964 390.341 215.477C 390.919 209.776 390.967 185.449 390.4 185.8C 390.144 185.958 390 184.671 390 182.224C 390 180.121 389.845 178.4 389.655 178.4C 389.466 178.4 389.199 176.825 389.063 174.9C 388.732 170.225 388.389 167.893 387.952 167.354C 387.754 167.108 387.676 166.247 387.779 165.44C 387.888 164.592 387.81 164.07 387.595 164.203C 387.214 164.439 387.014 163.793 386.604 161C 386.475 160.12 386.267 158.724 386.142 157.897C 386.018 157.071 385.755 156.295 385.558 156.174C 385.361 156.052 385.2 154.963 385.2 153.753C 385.2 152.388 385.048 151.647 384.8 151.8C 384.558 151.949 384.4 151.404 384.4 150.424C 384.4 149.247 384.235 148.8 383.8 148.8C 383.368 148.8 383.2 148.358 383.2 147.224C 383.2 146.357 383.044 145.551 382.853 145.432C 382.661 145.314 382.381 143.954 382.228 142.409C 382.076 140.864 381.782 139.6 381.576 139.6C 381.369 139.6 381.2 139.06 381.2 138.4C 381.2 137.74 381.02 137.2 380.8 137.2C 380.58 137.2 380.4 136.739 380.4 136.176C 380.4 135.596 380.227 135.26 380 135.4C 379.767 135.544 379.6 135.137 379.6 134.424C 379.6 133.563 379.408 133.2 378.953 133.2C 378.497 133.2 378.37 132.957 378.522 132.376C 378.654 131.871 378.517 131.466 378.169 131.333C 377.856 131.213 377.6 130.613 377.6 130C 377.6 129.387 377.365 128.795 377.078 128.685C 376.791 128.575 376.306 127.727 376 126.8C 375.694 125.873 375.209 125.025 374.922 124.915C 374.635 124.805 374.4 124.5 374.4 124.237C 374.4 123.535 373.448 121.607 373.1 121.603C 372.935 121.601 372.8 121.24 372.8 120.8C 372.8 120.36 372.62 120 372.4 120C 372.18 120 372 119.73 372 119.4C 372 119.07 371.73 118.8 371.4 118.8C 371.07 118.8 370.8 118.521 370.8 118.181C 370.8 117.84 370.35 117.145 369.8 116.635C 369.25 116.125 368.8 115.581 368.8 115.426C 368.8 114.99 367.709 114 367.229 114C 366.993 114 366.8 113.84 366.8 113.643C 366.8 113.447 366.337 113.17 365.77 113.028C 365.204 112.886 363.96 111.967 363.006 110.985C 362.021 109.972 360.902 109.2 360.418 109.2C 359.827 109.2 359.601 108.985 359.682 108.5C 359.761 108.033 359.501 107.758 358.9 107.672C 358.282 107.584 357.999 107.271 357.997 106.672C 357.994 105.677 356.208 104.343 353.9 103.613C 353.075 103.352 352.4 102.961 352.4 102.745C 352.4 102.529 352.232 102.456 352.028 102.583C 351.823 102.709 351.553 102.647 351.427 102.444C 351.302 102.241 350.839 102.169 350.4 102.284C 349.953 102.401 349.6 102.296 349.6 102.047C 349.6 101.801 349.049 101.6 348.376 101.6C 347.663 101.6 347.256 101.433 347.4 101.2C 347.551 100.956 346.937 100.8 345.824 100.8C 344.821 100.8 344 100.62 344 100.4C 344 100.167 342.675 100 340.824 100C 339.077 100 337.536 99.82 337.4 99.6C 337.241 99.342 330.222 99.198 317.676 99.194C 306.964 99.191 297.979 99.048 297.71 98.876C 297.334 98.637 297.213 93.66 297.19 77.482C 297.171 64.465 297.014 56.4 296.78 56.4C 296.571 56.4 296.4 55.612 296.4 54.649C 296.4 53.686 296.116 52.218 295.769 51.388C 295.422 50.558 295.228 49.535 295.338 49.115C 295.454 48.672 295.299 48.259 294.969 48.133C 294.656 48.013 294.4 47.394 294.4 46.757C 294.4 46.121 294.24 45.6 294.045 45.6C 293.692 45.6 293.184 43.669 293.167 42.255C 293.161 41.845 293.044 41.623 292.905 41.762C 292.766 41.901 292.125 40.976 291.481 39.707C 290.837 38.438 290.105 36.996 289.855 36.503C 289.605 36.01 289.252 35.605 289.071 35.603C 288.516 35.598 287.6 34.493 287.6 33.829C 287.6 33.483 287.409 33.2 287.176 33.2C 286.943 33.2 286.844 33.053 286.955 32.873C 287.066 32.693 286.807 32.293 286.379 31.985C 285.95 31.676 285.6 31.103 285.6 30.712C 285.6 30.32 285.319 30 284.976 30C 284.633 30 284.447 29.847 284.563 29.66C 284.678 29.473 284.329 29.083 283.786 28.793C 283.244 28.502 282.8 28.091 282.8 27.879C 282.8 27.417 281.228 26 280.715 26C 280.516 26 280.464 25.82 280.6 25.6C 280.736 25.38 280.567 25.2 280.224 25.2C 279.881 25.2 279.6 25.007 279.6 24.771C 279.6 24.134 278.547 23.2 277.829 23.2C 277.483 23.2 277.2 23.02 277.2 22.8C 277.2 22.58 276.919 22.4 276.576 22.4C 276.233 22.4 276.064 22.22 276.2 22C 276.336 21.78 276.167 21.6 275.824 21.6C 275.481 21.6 275.2 21.42 275.2 21.2C 275.2 20.98 274.97 20.8 274.689 20.8C 274.408 20.8 273.87 20.44 273.493 20C 273.116 19.56 272.486 19.2 272.092 19.2C 271.699 19.2 271.117 18.84 270.8 18.4C 270.483 17.96 269.903 17.6 269.512 17.6C 269.12 17.6 268.8 17.42 268.8 17.2C 268.8 16.98 268.44 16.8 268 16.8C 267.556 16.8 267.2 16.533 267.2 16.2C 267.2 15.867 266.844 15.6 266.4 15.6C 265.96 15.6 265.6 15.454 265.6 15.275C 265.6 15.096 264.978 14.705 264.218 14.407C 263.458 14.109 262.913 13.741 263.006 13.59C 263.099 13.439 262.708 13.405 262.135 13.514C 261.46 13.644 260.977 13.502 260.758 13.11C 260.543 12.726 260.055 12.577 259.415 12.699C 258.742 12.828 258.331 12.685 258.17 12.267C 258.025 11.887 257.043 11.472 255.665 11.208C 254.419 10.968 253.087 10.599 252.705 10.386C 252.323 10.174 251.209 10 250.229 10C 249.249 10 248.343 9.831 248.216 9.625C 247.626 8.671 245.291 7.96 243 8.036C 241.124 8.098 240.628 7.994 240.729 7.558C 240.832 7.111 240.756 7.099 240.349 7.5C 239.682 8.156 238.542 8.131 235.735 7.4C 234.082 6.969 231.304 6.8 225.892 6.8C 220.968 6.8 218.439 6.661 218.6 6.4C 218.763 6.136 212.812 6 201.047 6C 189.612 6 183.159 6.143 183 6.4M219.2 14.8C 228.333 15.418 232.456 15.865 241.8 17.253C 246.444 17.942 251.142 19.015 253.8 19.994C 254.24 20.157 255.32 20.516 256.2 20.794C 263.674 23.154 272.925 29.479 278.497 36.038C 279.32 37.007 280.21 38.056 280.476 38.368C 282.843 41.154 286.896 49.709 287.692 53.6C 288.583 57.953 288.725 65.03 288.725 105.2C 288.725 156.387 288.729 156.324 285.104 164.676C 281.736 172.436 270.467 185.2 266.984 185.2C 266.841 185.2 266.246 185.531 265.662 185.935C 263.637 187.336 257.649 189.542 253.535 190.402C 249.447 191.256 248.839 191.268 200.4 191.387C 165.781 191.472 150.813 191.64 149.4 191.96C 148.3 192.209 146.631 192.524 145.691 192.659C 144.751 192.795 143.885 193.062 143.767 193.253C 143.649 193.444 143.111 193.6 142.571 193.6C 142.031 193.6 141.277 193.761 140.895 193.958C 140.513 194.154 138.606 194.996 136.658 195.828C 133.606 197.132 128.733 199.789 127.412 200.87C 127.186 201.055 126.01 201.955 124.8 202.869C 121.561 205.317 114.4 212.686 114.4 213.571C 114.4 213.77 114.265 213.993 114.1 214.067C 112.168 214.925 106.624 226.54 104.873 233.4C 103.686 238.045 103.6 239.985 103.6 262.023L103.6 262.023L103.6 284.785L102.657 285.022C 99.893 285.715 65.408 284.935 62.4 284.111C 58.307 282.989 55.572 282.036 54.514 281.363C 54.027 281.054 53.352 280.8 53.014 280.8C 52.676 280.8 52.4 280.664 52.4 280.498C 52.4 280.331 51.9 279.974 51.288 279.703C 47.969 278.234 37.6 268.457 37.6 266.797C 37.6 266.579 37.42 266.4 37.2 266.4C 36.98 266.4 36.8 266.145 36.8 265.833C 36.8 265.522 36.657 265.207 36.481 265.133C 36.168 265.002 32.8 259.324 32.8 258.926C 32.8 258.815 32.191 257.435 31.447 255.862C 29.13 250.959 26.68 242.984 25.16 235.4C 24.252 230.87 24.02 229.716 23.671 228C 19.689 208.4 19.311 188.083 22.601 170.4C 22.949 168.53 23.399 166.1 23.6 165C 24.626 159.408 26.266 152.193 27.236 149C 27.704 147.46 28.178 145.705 28.289 145.1C 28.4 144.495 28.65 144 28.845 144C 29.04 144 29.2 143.669 29.2 143.263C 29.2 141.285 35.486 130.38 38.754 126.691C 42.486 122.476 49.929 116 51.04 116C 51.311 116 51.593 115.859 51.667 115.686C 51.942 115.038 58.339 112.023 62 110.816C 72.19 107.457 68.776 107.6 138.865 107.6L138.865 107.6L200.8 107.6L200.8 102.4L200.8 97.2L157.68 97.2C 124.676 97.2 114.447 97.087 114.08 96.72C 113.464 96.104 113.407 61.791 114.011 55.369C 114.437 50.851 115.324 45.89 116.079 43.8C 116.766 41.901 118.547 37.82 118.785 37.6C 118.904 37.49 119.268 36.884 119.593 36.254C 121.11 33.314 130.937 25.2 132.979 25.2C 133.321 25.2 133.6 25.02 133.6 24.8C 133.6 24.58 133.836 24.4 134.125 24.4C 134.414 24.4 135.359 24.061 136.225 23.647C 137.734 22.926 144.671 20.703 147.6 20.001C 148.37 19.817 149.72 19.477 150.6 19.246C 152.033 18.871 154.92 18.301 161 17.196C 165.357 16.404 176.735 15.168 184.2 14.676C 189.054 14.356 213.937 14.444 219.2 14.8M147.2 42.369C 138.025 45.902 133.495 55.994 137.294 64.437C 138.861 67.92 142.202 71.475 144.981 72.617C 145.872 72.983 146.913 73.444 147.295 73.641C 148.174 74.095 155.777 74.113 156.705 73.663C 157.087 73.478 158.256 72.912 159.302 72.407C 168.791 67.818 171.049 54.699 163.712 46.775C 162.503 45.469 161.263 44.4 160.957 44.4C 160.651 44.4 160.4 44.264 160.4 44.098C 160.4 43.763 159.107 43.147 156.45 42.214C 154.14 41.404 149.506 41.481 147.2 42.369M342.4 109.092C 348.274 110.742 352.772 112.867 355.829 115.437C 357.833 117.121 362.8 122.105 362.8 122.432C 362.8 122.603 363.042 122.985 363.337 123.28C 363.633 123.576 364.38 124.624 364.997 125.609C 365.615 126.594 366.243 127.49 366.393 127.6C 366.857 127.939 370.8 136.015 370.8 136.625C 370.8 136.941 370.96 137.2 371.155 137.2C 371.35 137.2 371.608 137.695 371.728 138.3C 371.849 138.905 372.581 141.29 373.356 143.6C 375.496 149.981 376.551 154.112 378.972 165.6C 383.278 186.026 383.721 207.791 380.181 225C 378.878 231.336 375.709 242.688 374.375 245.8C 374.186 246.24 373.377 248.31 372.577 250.4C 369.849 257.524 365.017 267.256 363.64 268.4C 363.507 268.51 363.129 269.14 362.799 269.8C 362.005 271.391 354.213 279.2 353.421 279.2C 353.079 279.2 352.8 279.38 352.8 279.6C 352.8 279.82 352.545 280 352.233 280C 351.922 280 351.607 280.138 351.533 280.306C 351.395 280.625 346.691 282.792 344.6 283.501C 340.175 285.001 339.99 285.005 270.3 284.851C 216.858 284.733 202.675 284.806 202.2 285.2C 201.081 286.129 201.346 295.437 202.5 295.755C 202.995 295.891 222.226 295.883 245.235 295.737L245.235 295.737L287.071 295.471L287.969 296.369L288.867 297.267L288.685 316.133C 288.559 329.159 288.352 335.557 288.017 336.8C 286.596 342.058 286.208 343.215 285.07 345.6C 280.519 355.136 269.604 364.48 257.426 369.266C 256.312 369.704 254.86 370.304 254.2 370.598C 251.626 371.748 241.793 374.8 240.662 374.8C 240.269 374.8 239.632 374.969 239.246 375.175C 238.416 375.62 228.674 377.733 224.4 378.396C 222.75 378.652 220.68 379.016 219.8 379.205C 212.63 380.743 189.924 380.541 180.4 378.854C 179.19 378.639 177.03 378.281 175.6 378.059C 172.697 377.607 164.749 375.811 163.202 375.257C 162.651 375.06 161.21 374.674 160 374.398C 158.79 374.122 157.62 373.765 157.4 373.605C 157.18 373.444 156.37 373.196 155.6 373.054C 154.254 372.805 151.189 371.72 148.54 370.554C 147.846 370.25 147.178 370 147.055 370C 146.053 370 134.201 363.592 132.307 362.026C 132.028 361.795 130.81 360.818 129.6 359.854C 126.011 356.995 120.8 351.54 120.8 350.642C 120.8 350.491 120.445 349.985 120.011 349.519C 118.962 348.394 116 342.296 116 341.263C 116 340.814 115.82 340.336 115.6 340.2C 115.38 340.064 115.2 339.502 115.2 338.95C 115.2 338.399 114.989 337.554 114.731 337.074C 114.163 336.013 114.221 240.132 114.792 238.2C 114.986 237.54 115.355 236.19 115.611 235.2C 117.92 226.259 123.35 217.701 130.206 212.2C 131.303 211.32 132.26 210.465 132.333 210.3C 132.407 210.135 132.722 210 133.033 210C 133.345 210 133.601 209.865 133.603 209.7C 133.605 209.38 134.753 208.675 138.6 206.628C 140.728 205.496 143.674 204.463 149.6 202.771C 151.002 202.371 162.513 202.205 201.6 202.018L201.6 202.018L251.8 201.779L256.139 200.679C 258.526 200.075 260.992 199.314 261.619 198.99C 262.247 198.665 263.129 198.4 263.58 198.4C 264.031 198.4 264.4 198.22 264.4 198C 264.4 197.78 264.63 197.6 264.911 197.6C 268.235 197.6 287.2 183.325 287.2 180.824C 287.2 180.622 287.451 180.206 287.757 179.9C 291.13 176.527 295.68 167.27 297.932 159.2L297.932 159.2L298.992 155.4L299.196 132.2C 299.308 119.44 299.551 108.766 299.736 108.479C 300.38 107.483 338.627 108.031 342.4 109.092M247.6 318.667C 246.12 318.9 242 320.538 242 320.893C 242 321.062 241.775 321.204 241.5 321.209C 239.453 321.247 235.295 327.741 234.457 332.21C 233.326 338.245 237.336 346.623 242.437 348.88C 243.077 349.164 243.6 349.511 243.6 349.652C 243.6 349.911 244.081 350.035 247.865 350.75C 249.791 351.114 252.132 350.932 255.4 350.163C 263.176 348.333 268.383 336.896 265.147 328.75C 262.345 321.694 255.035 317.494 247.6 318.667" stroke="none" fill="#F7F9F6" fill-rule="nonzero" />
        <path d="M162.9 8.287C 163.505 8.378 164.495 8.378 165.1 8.287C 165.705 8.195 165.21 8.12 164 8.12C 162.79 8.12 162.295 8.195 162.9 8.287M181 16.023C 180.12 16.205 178.41 16.366 177.2 16.38C 169.533 16.472 145.657 20.61 144.16 22.107C 143.999 22.268 143.483 22.4 143.013 22.4C 142.544 22.4 141.989 22.549 141.78 22.73C 141.571 22.912 140.59 23.307 139.6 23.608C 128.586 26.954 120.467 34.41 117.395 44C 116.795 45.87 116.089 48.03 115.825 48.8C 115.561 49.57 115.298 51.364 115.241 52.786C 115.183 54.208 114.971 55.681 114.768 56.059C 114.558 56.452 114.4 65.161 114.4 76.315L114.4 76.315L114.4 95.883L157.465 96.179C 181.15 96.342 200.753 96.561 201.027 96.666C 201.645 96.903 201.837 99.082 201.674 104.034L201.674 104.034L201.548 107.869L165.274 108.134C 145.323 108.28 117.84 108.399 104.2 108.399C 89.4 108.399 78.029 108.567 76 108.817C 71.023 109.428 66.079 110.437 63.8 111.305C 62.7 111.724 61.456 112.171 61.036 112.297C 60.615 112.424 59.036 113.128 57.525 113.863C 56.015 114.599 54.697 115.2 54.597 115.2C 54.497 115.2 53.431 115.83 52.227 116.6C 51.023 117.37 49.916 118 49.766 118C 49.616 118 49.203 118.317 48.847 118.704C 48.491 119.092 47.506 119.925 46.659 120.556C 44.819 121.926 40.868 125.895 38.85 128.4C 38.052 129.39 37.265 130.26 37.1 130.333C 36.935 130.407 36.8 130.722 36.8 131.033C 36.8 131.345 36.62 131.6 36.4 131.6C 36.18 131.6 36 131.751 36 131.936C 36 132.121 35.1 133.77 34 135.6C 32.9 137.43 32 139.081 32 139.268C 32 139.455 31.656 140.372 31.236 141.304C 29.78 144.536 28.375 148.403 27.969 150.297C 27.745 151.344 27.39 152.875 27.18 153.7C 26.971 154.525 26.629 155.875 26.42 156.7C 26.21 157.525 25.853 159.067 25.627 160.127C 25.4 161.186 25.119 162.207 25.004 162.394C 24.499 163.21 22.691 175.214 21.93 182.8C 20.982 192.244 21.426 210.263 22.807 218.4C 23.012 219.61 23.474 222.49 23.833 224.8C 24.438 228.685 25.023 231.509 26.01 235.3C 26.615 237.626 27.107 239.619 27.615 241.8C 28.08 243.794 30.173 250.68 30.776 252.2C 31.432 253.855 32.105 255.423 32.447 256.095C 32.641 256.477 32.8 256.948 32.8 257.142C 32.8 257.626 36.121 263.368 36.497 263.533C 36.664 263.607 36.8 263.861 36.8 264.098C 36.8 267.012 48.54 277.83 54.8 280.684C 62.368 284.135 65.082 284.487 85.5 284.67L85.5 284.67L102.8 284.824L102.802 262.712C 102.803 238.914 102.95 236.707 104.957 230.189C 106.422 225.432 106.963 224 107.298 224C 107.464 224 107.6 223.655 107.6 223.233C 107.6 222.812 107.735 222.407 107.9 222.333C 108.065 222.26 108.826 220.975 109.591 219.477C 110.357 217.98 111.257 216.442 111.591 216.06C 111.926 215.679 112.47 214.899 112.8 214.328C 115.146 210.268 125.361 200.626 129.2 198.848C 129.97 198.492 130.697 198.07 130.816 197.912C 131.208 197.39 139.545 193.6 140.301 193.6C 140.707 193.6 141.211 193.438 141.42 193.24C 142.011 192.68 148.251 191.251 151.809 190.861C 153.576 190.667 174.859 190.6 199.179 190.712C 244.391 190.919 248.956 190.81 255 189.38C 257.683 188.745 261.462 187.471 261.868 187.065C 262.014 186.919 262.463 186.8 262.867 186.8C 263.27 186.8 263.6 186.664 263.6 186.498C 263.6 186.331 264.185 185.943 264.9 185.634C 272.25 182.463 281.451 172.167 284.769 163.4C 285.269 162.08 285.824 160.64 286.001 160.2C 286.684 158.512 287.545 154.448 287.994 150.8C 288.595 145.908 288.35 60.044 287.726 57C 286.347 50.266 283.108 42.762 279.729 38.474C 278.276 36.63 272.562 30.945 271 29.789C 270.12 29.137 269.31 28.508 269.2 28.389C 268.273 27.39 260.627 23.356 257 21.952C 255.9 21.526 254.64 21.023 254.2 20.835C 253.479 20.525 252.341 20.186 248.6 19.164C 246.791 18.67 239.749 17.708 232.8 17.006C 229.39 16.661 224.946 16.204 222.923 15.99C 218.52 15.523 183.282 15.551 181 16.023M157 41.264C 158.49 41.782 160.072 42.503 160.6 42.905C 163.616 45.208 164.549 46.072 165.675 47.609C 167.479 50.072 168 51.05 168 51.971C 168 52.401 168.18 52.864 168.4 53C 168.63 53.142 168.8 55.263 168.8 58C 168.8 60.737 168.63 62.858 168.4 63C 168.18 63.136 168 63.619 168 64.073C 168 66.605 160.586 74 158.047 74C 157.618 74 157.193 74.22 157.104 74.488C 156.872 75.183 147.834 75.193 147.14 74.5C 146.865 74.225 146.226 74 145.72 74C 145.214 74 144.8 73.864 144.8 73.698C 144.8 73.531 144.254 73.154 143.587 72.858C 142.02 72.165 138.235 68.38 137.542 66.813C 137.246 66.146 136.869 65.6 136.702 65.6C 136.536 65.6 136.4 65.27 136.4 64.867C 136.4 64.463 136.271 64.005 136.114 63.847C 135.607 63.341 134.836 59.854 134.82 58C 134.798 55.427 135.344 53.473 137.156 49.637C 138.631 46.517 144.267 41.6 146.37 41.6C 146.739 41.6 147.211 41.432 147.42 41.227C 148.27 40.392 154.557 40.417 157 41.264M105.199 92.281C 105.089 95.626 105.14 98.222 105.311 98.05C 105.483 97.878 105.572 95.141 105.51 91.969L105.51 91.969L105.397 86.2L105.199 92.281zM11.344 196.4C 11.344 198.49 11.412 199.345 11.494 198.3C 11.576 197.255 11.576 195.545 11.494 194.5C 11.412 193.455 11.344 194.31 11.344 196.4M389.314 222.6C 389.317 223.7 389.395 224.103 389.487 223.495C 389.579 222.886 389.577 221.986 389.482 221.495C 389.387 221.003 389.311 221.5 389.314 222.6M78.9 293.9C 83.685 293.963 91.515 293.963 96.3 293.9C 101.085 293.836 97.17 293.784 87.6 293.784C 78.03 293.784 74.115 293.836 78.9 293.9M166.9 385.076C 167.285 385.176 167.915 385.176 168.3 385.076C 168.685 384.975 168.37 384.893 167.6 384.893C 166.83 384.893 166.515 384.975 166.9 385.076" stroke="none" fill="#3C79A8" fill-rule="nonzero" />
        <path d="M191.9 5.9C 196.355 5.964 203.645 5.964 208.1 5.9C 212.555 5.835 208.91 5.782 200 5.782C 191.09 5.782 187.445 5.835 191.9 5.9M176.515 6.696C 177.788 6.776 179.768 6.775 180.915 6.694C 182.062 6.614 181.02 6.549 178.6 6.55C 176.18 6.551 175.242 6.616 176.515 6.696M221 6.675C 227.903 6.963 234.31 6.975 234.139 6.7C 234.037 6.535 230.408 6.436 226.076 6.479C 221.744 6.523 219.46 6.611 221 6.675M236.768 7.638C 237.895 8.088 240.846 7.999 240.553 7.523C 240.443 7.345 239.328 7.211 238.076 7.225C 236.195 7.246 235.968 7.318 236.768 7.638M141.9 12.682C 142.395 12.778 143.205 12.778 143.7 12.682C 144.195 12.587 143.79 12.509 142.8 12.509C 141.81 12.509 141.405 12.587 141.9 12.682M260.8 13.355C 260.8 13.44 261.33 13.587 261.979 13.682C 262.627 13.777 263.067 13.708 262.955 13.528C 262.757 13.207 260.8 13.05 260.8 13.355M184.2 14.676C 176.735 15.168 165.357 16.404 161 17.196C 154.92 18.301 152.033 18.871 150.6 19.246C 149.72 19.477 148.37 19.817 147.6 20.001C 144.671 20.703 137.734 22.926 136.225 23.647C 135.359 24.061 134.414 24.4 134.125 24.4C 133.836 24.4 133.6 24.58 133.6 24.8C 133.6 25.02 133.321 25.2 132.979 25.2C 130.937 25.2 121.11 33.314 119.593 36.254C 119.268 36.884 118.904 37.49 118.785 37.6C 118.547 37.82 116.766 41.901 116.079 43.8C 115.324 45.89 114.437 50.851 114.011 55.369C 113.407 61.791 113.464 96.104 114.08 96.72C 114.447 97.087 124.676 97.2 157.68 97.2L157.68 97.2L200.8 97.2L200.8 102.4L200.8 107.6L138.865 107.6C 68.776 107.6 72.19 107.457 62 110.816C 58.339 112.023 51.942 115.038 51.667 115.686C 51.593 115.859 51.311 116 51.04 116C 49.929 116 42.486 122.476 38.754 126.691C 35.486 130.38 29.2 141.285 29.2 143.263C 29.2 143.669 29.04 144 28.845 144C 28.65 144 28.4 144.495 28.289 145.1C 28.178 145.705 27.704 147.46 27.236 149C 26.266 152.193 24.626 159.408 23.6 165C 23.399 166.1 22.949 168.53 22.601 170.4C 19.311 188.083 19.689 208.4 23.671 228C 24.02 229.716 24.252 230.87 25.16 235.4C 26.68 242.984 29.13 250.959 31.447 255.862C 32.191 257.435 32.8 258.815 32.8 258.926C 32.8 259.324 36.168 265.002 36.481 265.133C 36.657 265.207 36.8 265.522 36.8 265.833C 36.8 266.145 36.98 266.4 37.2 266.4C 37.42 266.4 37.6 266.579 37.6 266.797C 37.6 267.642 42.887 273.368 46.059 275.956C 49.411 278.693 50.067 279.163 51.288 279.703C 51.9 279.974 52.4 280.331 52.4 280.498C 52.4 280.664 52.676 280.8 53.014 280.8C 53.352 280.8 54.027 281.054 54.514 281.363C 55.572 282.036 58.307 282.989 62.4 284.111C 65.408 284.935 99.893 285.715 102.657 285.022L102.657 285.022L103.6 284.785L103.6 262.023C 103.6 239.985 103.686 238.045 104.873 233.4C 106.624 226.54 112.168 214.925 114.1 214.067C 114.265 213.993 114.4 213.77 114.4 213.571C 114.4 212.686 121.561 205.317 124.8 202.869C 126.01 201.955 127.186 201.055 127.412 200.87C 128.733 199.789 133.606 197.132 136.658 195.828C 138.606 194.996 140.513 194.154 140.895 193.958C 141.277 193.761 142.031 193.6 142.571 193.6C 143.111 193.6 143.649 193.444 143.767 193.253C 143.885 193.062 144.751 192.795 145.691 192.659C 146.631 192.524 148.3 192.209 149.4 191.96C 150.813 191.64 165.781 191.472 200.4 191.387C 248.839 191.268 249.447 191.256 253.535 190.402C 257.649 189.542 263.637 187.336 265.662 185.935C 266.246 185.531 266.841 185.2 266.984 185.2C 267.8 185.2 272.68 181.37 275.671 178.383C 283.102 170.961 287.802 161.144 288.207 152.2L288.207 152.2L288.334 149.4L287.952 151.8C 287.503 154.618 286.474 159.06 286.006 160.2C 285.826 160.64 285.269 162.08 284.769 163.4C 281.451 172.167 272.25 182.463 264.9 185.634C 264.185 185.943 263.6 186.331 263.6 186.498C 263.6 186.664 263.27 186.8 262.867 186.8C 262.463 186.8 262.014 186.919 261.868 187.065C 261.462 187.471 257.683 188.745 255 189.38C 248.956 190.81 244.391 190.919 199.179 190.712C 174.859 190.6 153.576 190.667 151.809 190.861C 148.251 191.251 142.011 192.68 141.42 193.24C 141.211 193.438 140.707 193.6 140.301 193.6C 139.545 193.6 131.208 197.39 130.816 197.912C 130.697 198.07 129.97 198.492 129.2 198.848C 125.361 200.626 115.146 210.268 112.8 214.328C 112.47 214.899 111.926 215.679 111.591 216.06C 111.257 216.442 110.357 217.98 109.591 219.477C 108.826 220.975 108.065 222.26 107.9 222.333C 107.735 222.407 107.6 222.812 107.6 223.233C 107.6 223.655 107.464 224 107.298 224C 106.963 224 106.422 225.432 104.957 230.189C 102.95 236.707 102.803 238.914 102.802 262.712L102.802 262.712L102.8 284.824L85.5 284.67C 65.082 284.487 62.368 284.135 54.8 280.684C 48.54 277.83 36.8 267.012 36.8 264.098C 36.8 263.861 36.664 263.607 36.497 263.533C 36.121 263.368 32.8 257.626 32.8 257.142C 32.8 256.948 32.641 256.477 32.447 256.095C 32.105 255.423 31.432 253.855 30.776 252.2C 30.173 250.68 28.08 243.794 27.615 241.8C 26.971 239.033 26.538 237.273 26.043 235.4C 25.059 231.681 24.448 228.753 23.833 224.8C 23.474 222.49 23.012 219.61 22.807 218.4C 21.426 210.263 20.982 192.244 21.93 182.8C 22.691 175.214 24.499 163.21 25.004 162.394C 25.119 162.207 25.4 161.186 25.627 160.127C 26.029 158.245 26.467 156.43 27.199 153.6C 27.398 152.83 27.745 151.344 27.969 150.297C 28.375 148.403 29.78 144.536 31.236 141.304C 31.656 140.372 32 139.455 32 139.268C 32 139.081 32.9 137.43 34 135.6C 35.1 133.77 36 132.121 36 131.936C 36 131.751 36.18 131.6 36.4 131.6C 36.62 131.6 36.8 131.345 36.8 131.033C 36.8 130.722 36.935 130.407 37.1 130.333C 37.265 130.26 38.052 129.39 38.85 128.4C 40.868 125.895 44.819 121.926 46.659 120.556C 47.506 119.925 48.491 119.092 48.847 118.704C 49.203 118.317 49.616 118 49.766 118C 49.916 118 51.023 117.37 52.227 116.6C 53.431 115.83 54.497 115.2 54.597 115.2C 54.697 115.2 56.015 114.599 57.525 113.863C 59.036 113.128 60.615 112.424 61.036 112.297C 61.456 112.171 62.7 111.724 63.8 111.305C 66.079 110.437 71.023 109.428 76 108.817C 78.029 108.567 89.4 108.399 104.2 108.399C 117.84 108.399 145.323 108.28 165.274 108.134L165.274 108.134L201.548 107.869L201.674 104.034C 201.837 99.082 201.645 96.903 201.027 96.666C 200.753 96.561 181.15 96.342 157.465 96.179L157.465 96.179L114.4 95.883L114.4 76.315C 114.4 65.161 114.558 56.452 114.768 56.059C 114.971 55.681 115.183 54.208 115.241 52.786C 115.298 51.364 115.561 49.57 115.825 48.8C 116.089 48.03 116.795 45.87 117.395 44C 120.467 34.41 128.586 26.954 139.6 23.608C 140.59 23.307 141.571 22.912 141.78 22.73C 141.989 22.549 142.544 22.4 143.013 22.4C 143.483 22.4 143.999 22.268 144.16 22.107C 145.628 20.639 161.804 17.758 176.6 16.329C 183.379 15.675 216.406 15.436 222.6 15.997C 235.49 17.164 246.752 18.623 250 19.548C 250.77 19.767 251.85 20.063 252.4 20.206C 252.95 20.35 253.76 20.627 254.2 20.822C 254.64 21.018 255.9 21.526 257 21.952C 260.627 23.356 268.273 27.39 269.2 28.389C 269.31 28.508 270.12 29.137 271 29.789C 272.562 30.945 278.276 36.63 279.729 38.474C 283.152 42.819 287.585 53.298 287.606 57.095C 287.609 57.703 287.799 58.47 288.026 58.8C 288.5 59.486 288.317 56.635 287.694 53.6C 286.893 49.702 282.842 41.153 280.476 38.368C 280.21 38.056 279.32 37.007 278.497 36.038C 272.925 29.479 263.674 23.154 256.2 20.794C 255.32 20.516 254.24 20.157 253.8 19.994C 251.142 19.015 246.444 17.942 241.8 17.253C 232.456 15.865 228.333 15.418 219.2 14.8C 213.937 14.444 189.054 14.356 184.2 14.676M149.4 40.681C 148.52 40.776 147.629 41.021 147.42 41.227C 147.211 41.432 146.739 41.6 146.37 41.6C 144.267 41.6 138.631 46.517 137.156 49.637C 135.344 53.473 134.798 55.427 134.82 58C 134.836 59.854 135.607 63.341 136.114 63.847C 136.271 64.005 136.4 64.463 136.4 64.867C 136.4 65.27 136.536 65.6 136.702 65.6C 136.869 65.6 137.246 66.146 137.542 66.813C 138.235 68.38 142.02 72.165 143.587 72.858C 144.254 73.154 144.8 73.531 144.8 73.698C 144.8 73.864 145.214 74 145.72 74C 146.226 74 146.865 74.225 147.14 74.5C 147.834 75.193 156.872 75.183 157.104 74.488C 157.193 74.22 157.618 74 158.047 74C 160.586 74 168 66.605 168 64.073C 168 63.619 168.18 63.136 168.4 63C 168.63 62.858 168.8 60.737 168.8 58C 168.8 55.263 168.63 53.142 168.4 53C 168.18 52.864 168 52.401 168 51.971C 168 51.05 167.479 50.072 165.675 47.609C 164.549 46.072 163.616 45.208 160.6 42.905C 158.436 41.253 153.386 40.25 149.4 40.681M156.45 42.214C 159.107 43.147 160.4 43.763 160.4 44.098C 160.4 44.264 160.651 44.4 160.957 44.4C 161.263 44.4 162.503 45.469 163.712 46.775C 171.049 54.699 168.791 67.818 159.302 72.407C 158.256 72.912 157.087 73.478 156.705 73.663C 155.777 74.113 148.174 74.095 147.295 73.641C 146.913 73.444 145.872 72.983 144.981 72.617C 143.47 71.996 140.781 69.719 139.05 67.595C 134.499 62.009 135.402 51.672 140.921 46.182C 144.866 42.259 151.643 40.527 156.45 42.214M107.301 43.8C 107.305 44.68 107.387 44.993 107.483 44.495C 107.579 43.998 107.575 43.278 107.475 42.895C 107.375 42.513 107.296 42.92 107.301 43.8M293.552 44.487C 293.737 45.598 293.793 45.655 293.919 44.854C 294.001 44.333 293.903 43.743 293.701 43.541C 293.479 43.319 293.421 43.693 293.552 44.487M106.109 50.4C 106.109 51.39 106.187 51.795 106.282 51.3C 106.378 50.805 106.378 49.995 106.282 49.5C 106.187 49.005 106.109 49.41 106.109 50.4M105.383 70.2C 105.383 79.22 105.435 82.967 105.499 78.527C 105.564 74.087 105.564 66.707 105.5 62.127C 105.435 57.547 105.383 61.18 105.383 70.2M288.593 105.2C 288.593 129.29 288.641 139.145 288.7 127.1C 288.759 115.055 288.759 95.345 288.7 83.3C 288.641 71.255 288.593 81.11 288.593 105.2M57.4 103.2L56.2 103.505L57.276 103.553C 57.868 103.579 58.464 103.42 58.6 103.2C 58.736 102.98 58.792 102.821 58.724 102.847C 58.656 102.873 58.06 103.032 57.4 103.2M382.464 143.476C 382.429 144.398 382.58 145.264 382.8 145.4C 383.02 145.536 383.229 146.402 383.264 147.324C 383.324 148.904 383.338 148.921 383.495 147.631C 383.586 146.878 383.473 145.888 383.243 145.431C 383.013 144.974 382.758 143.97 382.676 143.2C 382.536 141.873 382.525 141.887 382.464 143.476M17.328 152C 17.328 153.43 17.401 154.015 17.489 153.3C 17.578 152.585 17.578 151.415 17.489 150.7C 17.401 149.985 17.328 150.57 17.328 152M16.524 157C 16.526 158.32 16.601 158.812 16.69 158.093C 16.779 157.374 16.777 156.294 16.686 155.693C 16.595 155.092 16.522 155.68 16.524 157M389.309 176.8C 389.309 177.79 389.387 178.195 389.482 177.7C 389.578 177.205 389.578 176.395 389.482 175.9C 389.387 175.405 389.309 175.81 389.309 176.8M390.14 182.8C 390.14 184.67 390.209 185.435 390.293 184.5C 390.377 183.565 390.377 182.035 390.293 181.1C 390.209 180.165 390.14 180.93 390.14 182.8M387.18 231.09C 387.071 232.019 387.133 232.627 387.32 232.44C 387.506 232.254 387.596 231.494 387.519 230.751C 387.383 229.433 387.375 229.442 387.18 231.09M18.101 243C 18.105 243.88 18.187 244.193 18.283 243.695C 18.379 243.198 18.375 242.478 18.275 242.095C 18.175 241.713 18.096 242.12 18.101 243M18.735 246.436C 18.817 247.299 19.004 248.079 19.15 248.169C 19.295 248.259 19.347 247.627 19.265 246.764C 19.183 245.901 18.996 245.121 18.85 245.031C 18.705 244.941 18.653 245.573 18.735 246.436M19.6 249.891C 19.6 250.582 19.848 251.21 20.171 251.333C 20.645 251.515 20.669 251.335 20.312 250.276C 19.723 248.532 19.6 248.465 19.6 249.891M380.893 252.8C 380.893 253.57 380.975 253.885 381.076 253.5C 381.176 253.115 381.176 252.485 381.076 252.1C 380.975 251.715 380.893 252.03 380.893 252.8M379.443 255.833C 379.096 256.736 379.129 256.802 379.8 256.545C 380.13 256.418 380.4 256.064 380.4 255.757C 380.4 254.999 379.743 255.051 379.443 255.833M24 261.176C 24 261.409 24.146 261.6 24.325 261.6C 24.504 261.6 24.897 262.227 25.198 262.994C 25.499 263.761 25.826 264.308 25.925 264.209C 26.163 263.971 24.888 261.302 24.389 260.993C 24.175 260.861 24 260.943 24 261.176M374.691 266.227C 374.102 267.202 373.697 268 373.792 268C 374.122 268 375.886 266.074 376.124 265.453C 376.664 264.047 375.69 264.572 374.691 266.227M27.2 267.4C 27.2 267.73 27.492 268 27.849 268C 28.38 268 28.408 267.891 28 267.4C 27.726 267.07 27.434 266.8 27.351 266.8C 27.268 266.8 27.2 267.07 27.2 267.4M370.86 272.38C 370.948 272.644 371.15 272.847 371.31 272.83C 371.788 272.781 371.696 272.232 371.18 272.06C 370.916 271.972 370.772 272.116 370.86 272.38M31.338 273.531C 31.702 273.934 32 274.474 32 274.731C 32 274.989 32.255 275.2 32.567 275.2C 32.878 275.2 33.214 275.425 33.312 275.7C 33.41 275.975 33.624 276.076 33.788 275.924C 34.097 275.637 31.563 272.8 30.998 272.8C 30.821 272.8 30.974 273.129 31.338 273.531M369 275.2C 368.86 275.64 368.578 276 368.373 276C 368.168 276 368 276.189 368 276.419C 368 276.65 367.534 277.27 366.964 277.799C 365.762 278.912 365.996 279.938 367.214 278.895C 367.646 278.525 368 278.054 368 277.849C 368 277.644 368.45 276.886 369 276.164C 370.082 274.746 370.205 274.4 369.627 274.4C 369.422 274.4 369.14 274.76 369 275.2M37.2 279.832C 37.75 280.474 38.245 281.075 38.3 281.167C 38.355 281.258 38.394 281.078 38.387 280.767C 38.381 280.455 37.886 279.854 37.287 279.432L37.287 279.432L36.2 278.664L37.2 279.832zM364.9 279.798C 364.625 280.111 364.4 280.477 364.4 280.612C 364.4 281.018 363.288 282 362.829 282C 362.593 282 362.396 282.135 362.391 282.3C 362.386 282.465 361.49 283.23 360.4 284C 358.195 285.557 357.854 286.224 359.468 285.819C 360.531 285.552 365.272 281.005 364.888 280.621C 364.776 280.51 364.981 280.305 365.343 280.167C 365.704 280.028 366 279.754 366 279.557C 366 279.033 365.472 279.149 364.9 279.798M39.251 281.898C 40.247 283.165 40.737 283.6 41.171 283.6C 41.936 283.6 41.625 282.949 40.6 282.4C 40.05 282.106 39.6 281.715 39.6 281.532C 39.6 281.35 39.398 281.2 39.151 281.2C 38.857 281.2 38.892 281.441 39.251 281.898M43.2 285.151C 43.2 285.623 44.021 286.237 45 286.497C 45.44 286.614 46.16 286.839 46.6 286.998C 47.04 287.157 46.59 286.728 45.6 286.045C 43.728 284.754 43.2 284.557 43.2 285.151M356 287.2C 356 287.42 356.27 287.6 356.6 287.6C 356.93 287.6 357.2 287.42 357.2 287.2C 357.2 286.98 356.93 286.8 356.6 286.8C 356.27 286.8 356 286.98 356 287.2M351.5 289.476C 350.668 289.693 350.559 290.4 351.357 290.4C 351.664 290.4 352.018 290.13 352.145 289.8C 352.271 289.47 352.336 289.221 352.287 289.246C 352.239 289.272 351.885 289.375 351.5 289.476M349.38 290.361C 349.171 290.56 348.64 290.809 348.2 290.915C 347.748 291.023 348.053 291.127 348.9 291.154C 349.987 291.187 350.4 291.035 350.4 290.6C 350.4 289.925 349.95 289.82 349.38 290.361M343.052 291.916C 342.944 292.09 343.518 292.17 344.328 292.093C 346.802 291.859 347.093 291.695 345.124 291.646C 344.092 291.621 343.159 291.742 343.052 291.916M61.557 292.519C 61.733 292.694 63.21 292.782 64.839 292.715L64.839 292.715L67.8 292.593L64.518 292.396C 62.713 292.288 61.38 292.343 61.557 292.519M338.105 292.687C 338.714 292.779 339.614 292.777 340.105 292.682C 340.597 292.587 340.1 292.511 339 292.514C 337.9 292.517 337.497 292.595 338.105 292.687M296.79 313.9C 296.785 324.625 296.624 334.075 296.433 334.9C 296.241 335.725 296.224 336.4 296.395 336.4C 296.567 336.4 296.806 335.905 296.928 335.3C 297.209 333.903 297.286 294.4 297.007 294.4C 296.893 294.4 296.796 303.175 296.79 313.9M108.814 347.254C 108.806 347.394 109.063 348.114 109.384 348.854C 109.706 349.594 109.969 349.93 109.97 349.6C 109.972 349.024 108.843 346.734 108.814 347.254M292.873 348.887C 292.613 349.147 292.4 349.634 292.4 349.969C 292.4 350.387 292.601 350.291 293.041 349.663C 293.743 348.661 293.628 348.132 292.873 348.887M291.156 352.202C 290.802 352.959 290.668 353.482 290.859 353.364C 291.369 353.048 292.473 350.798 292.11 350.813C 291.94 350.82 291.51 351.445 291.156 352.202M115.6 358.109C 115.6 358.789 117.583 361.35 117.879 361.054C 117.978 360.955 117.506 360.111 116.829 359.177C 116.153 358.244 115.6 357.763 115.6 358.109M284.345 361.1C 281.413 364.143 277.448 367.78 277.21 367.647C 277.106 367.588 276.955 367.734 276.877 367.97C 276.587 368.838 277.68 368.366 278.661 367.2C 279.217 366.54 279.898 366 280.176 366C 280.454 366 281.203 365.472 281.841 364.827C 285.833 360.789 286.554 360 286.246 360C 286.057 360 286.126 359.73 286.4 359.4C 287.547 358.018 286.406 358.962 284.345 361.1M121.694 365C 122.698 365.99 123.821 366.8 124.188 366.8C 124.979 366.8 124.717 366.505 122.142 364.494C 119.778 362.648 119.559 362.895 121.694 365M272.69 370.584C 271.421 371.246 270.162 372.4 270.709 372.4C 270.911 372.4 271.402 372.04 271.8 371.6C 272.198 371.16 272.856 370.8 273.262 370.8C 273.668 370.8 274 370.62 274 370.4C 274 369.895 274.015 369.893 272.69 370.584M133.51 373.201C 134.942 374.075 135.202 374.151 135.197 373.7C 135.193 373.366 133.276 372.399 132.62 372.401C 132.389 372.402 132.789 372.762 133.51 373.201M266 374.4C 266 374.62 266.27 374.8 266.6 374.8C 266.93 374.8 267.2 374.62 267.2 374.4C 267.2 374.18 266.93 374 266.6 374C 266.27 374 266 374.18 266 374.4M261.852 376.459C 261.441 376.698 260.181 377.226 259.052 377.632C 257.804 378.082 257.355 378.377 257.905 378.386C 258.403 378.394 259.123 378.232 259.505 378.026C 259.887 377.821 260.785 377.417 261.5 377.129C 262.215 376.84 262.8 376.469 262.8 376.302C 262.8 375.923 262.763 375.929 261.852 376.459M141.2 377.079C 141.2 377.27 142.055 377.671 143.1 377.971C 144.145 378.271 145.212 378.682 145.472 378.884C 145.732 379.086 146.632 379.18 147.472 379.093L147.472 379.093L149 378.934L147.3 378.867C 146.365 378.83 145.6 378.657 145.6 378.483C 145.6 378.309 144.835 377.94 143.9 377.665C 142.965 377.389 141.975 377.067 141.7 376.948C 141.425 376.83 141.2 376.889 141.2 377.079M242.6 382.8L241.4 383.105L242.7 383.153C 243.415 383.179 244 383.02 244 382.8C 244 382.58 243.955 382.421 243.9 382.447C 243.845 382.473 243.26 382.632 242.6 382.8M158.9 383.076C 159.285 383.176 159.915 383.176 160.3 383.076C 160.685 382.975 160.37 382.893 159.6 382.893C 158.83 382.893 158.515 382.975 158.9 383.076M163.3 384.276C 163.685 384.376 164.315 384.376 164.7 384.276C 165.085 384.175 164.77 384.093 164 384.093C 163.23 384.093 162.915 384.175 163.3 384.276" stroke="none" fill="#799EBB" fill-rule="nonzero" />
	</g>
</g>
</svg>