<?xml version="1.0" standalone="no"?>
<!DOCTYPE svg PUBLIC "-//W3C//DTD SVG 1.0//EN" "http://www.w3.org/TR/2001/REC-SVG-20010904/DTD/svg10.dtd">
<svg xmlns="http://www.w3.org/2000/svg" xmlns:xlink="http://www.w3.org/1999/xlink" id="body_1" width="53" height="32">

<g transform="matrix(0.057608694 0 0 0.05714286 0 0)">
    <path d="M0 0L0 560L920 560L920 0L0 0z" stroke="none" fill="#FEFEFE" fill-rule="nonzero" />
    <path d="M434 44C 428.723 47.9989 415.369 48.4637 409 47L409 47L403 50L403 51C 430.019 44.4929 457.641 46.9819 485 47L485 47L484 44L459 44.0046L434 44zM495 45L496 47L495 47L486 46L486 47L504 49L504 48L495 45zM505 48L505 49C 515.445 51.4937 525.176 52.337 535 57.2484C 541.468 60.4821 547.673 64.1536 553 69.0903C 579.862 93.9826 575 126.645 575 160L575 160L624 159C 615.879 155.592 602.799 158.003 594 158C 589.851 157.998 583.664 158.668 581.028 154.606C 578.699 151.018 580 144.1 580 140C 580 128.591 580.326 116.285 578.7 105C 574.224 73.9431 536.106 46.0191 505 48zM399 49L402 51L402 50L399 49zM386 54L386 55L398 52L386 54zM367 63L384 56C 378.012 54.0117 370.017 57.6482 367 63zM447 56L447 57L470 57L447 56zM431 57L431 58L441 58L431 57z" stroke="none" fill="#B6BBBF" fill-rule="nonzero" />
    <path d="M441 57L441 58L478 58C 468.202 53.8887 451.649 57 441 57z" stroke="none" fill="#799EBC" fill-rule="nonzero" />
    <path d="M478 57L478 58L487 58L478 57zM422 58L422 59L426 59L422 58z" stroke="none" fill="#B6BBBF" fill-rule="nonzero" />
    <path d="M418 59L418 60L437 59L418 59z" stroke="none" fill="#799EBC" fill-rule="nonzero" />
    <path d="M354 156L429 156L457.682 157.028L460 170C 415.869 170 371.039 167.75 327 170.421C 305.022 171.753 285.255 172.101 268.09 188.286C 255.319 200.327 249.576 217.306 246 234C 239.303 265.269 239.707 296.932 247.374 328C 251.342 344.076 257.015 361.366 270.039 372.535C 289.282 389.038 316.515 385 340 385C 340 347.497 334.581 308.036 369 282.927C 374.519 278.902 381.458 275.42 388 273.439C 427.786 261.392 472.365 275.512 513 270.715C 540.332 267.488 562.857 250.302 564.911 221C 566.876 192.959 565 164.116 565 136C 565 115.965 565.677 96.7121 550.711 81.1698C 536.005 65.8974 517.125 61.9887 497 59.8341C 468.743 56.8089 440.161 57.2064 412 61.1304C 395.967 63.3644 375.527 67.1216 364.329 80.0401C 347.987 98.8916 354 133.007 354 156z" stroke="none" fill="#3D79A9" fill-rule="nonzero" />
    <path d="M483 58L483 59L492 59L483 58z" stroke="none" fill="#799EBC" fill-rule="nonzero" />
    <path d="M492 58L492 59L496 59L492 58zM415 59L415 60L418 60L415 59z" stroke="none" fill="#B6BBBF" fill-rule="nonzero" />
    <path d="M494 59L494 60L500 60L494 59z" stroke="none" fill="#799EBC" fill-rule="nonzero" />
    <path d="M500 59L500 60L504 60L500 59zM408 60L408 61L411 61L408 60z" stroke="none" fill="#B6BBBF" fill-rule="nonzero" />
    <path d="M411 60L411 61L417 61L411 60zM503 60L503 61L508 61L503 60z" stroke="none" fill="#799EBC" fill-rule="nonzero" />
    <path d="M508.667 60.3333L509.333 60.6667L508.667 60.3333zM403.667 61.3333L404.333 61.6667L403.667 61.3333z" stroke="none" fill="#B6BBBF" fill-rule="nonzero" />
    <path d="M405 61L405 62L410 62L405 61zM512.667 61.3333L513.333 61.6667L512.667 61.3333z" stroke="none" fill="#799EBC" fill-rule="nonzero" />
    <path d="M514.667 61.3333L515.333 61.6667L514.667 61.3333zM355 71C 348.977 72.1887 345.774 80.6987 343.748 86C 337.597 102.098 339 120.117 339 137C 339 141.862 340.84 151.538 337.397 155.427C 332.247 161.245 314.189 158 307 158L307 158L307 159C 315.992 159 325.01 158.798 334 159.015C 336.454 159.074 341.126 160.526 342.972 158.357C 345.456 155.439 344 147.6 344 144C 344 130.823 342.916 117.117 344.17 104C 345.168 93.5535 348.011 83.4225 354.529 75C 358.071 70.4216 363.28 67.096 366 62L366 62L355 71zM398.667 62.3333L399.333 62.6667L398.667 62.3333z" stroke="none" fill="#B6BBBF" fill-rule="nonzero" />
    <path d="M400 62L400 63L403 63L400 62zM517 62L518 63L517 62z" stroke="none" fill="#799EBC" fill-rule="nonzero" />
    <path d="M518.667 62.3333L519.333 62.6667L518.667 62.3333zM394.667 63.3333L395.333 63.6667L394.667 63.3333z" stroke="none" fill="#B6BBBF" fill-rule="nonzero" />
    <path d="M396.667 63.3333L397.333 63.6667L396.667 63.3333zM520.667 63.3333L521.333 63.6667L520.667 63.3333z" stroke="none" fill="#799EBC" fill-rule="nonzero" />
    <path d="M522 63L523 64L522 63zM390.667 64.3333L391.333 64.6667L390.667 64.3333z" stroke="none" fill="#B6BBBF" fill-rule="nonzero" />
    <path d="M392.667 64.3333L393.333 64.6667L392.667 64.3333zM524 64L525 65L524 64z" stroke="none" fill="#799EBC" fill-rule="nonzero" />
    <path d="M525 64L526 65L525 64zM387.667 65.3333L388.333 65.6667L387.667 65.3333z" stroke="none" fill="#B6BBBF" fill-rule="nonzero" />
    <path d="M389.667 65.3333L390.333 65.6667L389.667 65.3333zM526 65L527 66L526 65z" stroke="none" fill="#799EBC" fill-rule="nonzero" />
    <path d="M527.667 65.3333L528.333 65.6667L527.667 65.3333zM384.667 66.3333L385.333 66.6667L384.667 66.3333z" stroke="none" fill="#B6BBBF" fill-rule="nonzero" />
    <path d="M386.667 66.3333L387.333 66.6667L386.667 66.3333zM529 66L530 67L529 66z" stroke="none" fill="#799EBC" fill-rule="nonzero" />
    <path d="M530 66L531 67L530 66zM379 68L379 69L383 68L379 68z" stroke="none" fill="#B6BBBF" fill-rule="nonzero" />
    <path d="M383.667 67.3333L384.333 67.6667L383.667 67.3333zM531 67L532 68L531 67z" stroke="none" fill="#799EBC" fill-rule="nonzero" />
    <path d="M532 67L533 68L532 67z" stroke="none" fill="#B6BBBF" fill-rule="nonzero" />
    <path d="M381.667 68.3333L382.333 68.6667L381.667 68.3333zM533 68L534 69L533 68z" stroke="none" fill="#799EBC" fill-rule="nonzero" />
    <path d="M534 68L535 69L534 68zM377 69L378 70L377 69z" stroke="none" fill="#B6BBBF" fill-rule="nonzero" />
    <path d="M378 69L378 70L381 70L378 69zM535 69L536 70L535 69z" stroke="none" fill="#799EBC" fill-rule="nonzero" />
    <path d="M536 69L537 70L536 69zM375 70L376 71L375 70z" stroke="none" fill="#B6BBBF" fill-rule="nonzero" />
    <path d="M376.667 70.3333L377.333 70.6667L376.667 70.3333zM537 70L539 72L537 70z" stroke="none" fill="#799EBC" fill-rule="nonzero" />
    <path d="M538 70L539 71L538 70zM373 71L372 73L373 71z" stroke="none" fill="#B6BBBF" fill-rule="nonzero" />
    <path d="M374.667 71.3333L375.333 71.6667L374.667 71.3333z" stroke="none" fill="#799EBC" fill-rule="nonzero" />
    <path d="M539 71L540 72L539 71z" stroke="none" fill="#B6BBBF" fill-rule="nonzero" />
    <path d="M373 72L374 73L373 72zM540 72L541 73L540 72z" stroke="none" fill="#799EBC" fill-rule="nonzero" />
    <path d="M370 73L369 75L370 73z" stroke="none" fill="#B6BBBF" fill-rule="nonzero" />
    <path d="M371.667 73.3333L372.333 73.6667L371.667 73.3333zM541 73L542 74L541 73z" stroke="none" fill="#799EBC" fill-rule="nonzero" />
    <path d="M542 73L543 74L542 73z" stroke="none" fill="#B6BBBF" fill-rule="nonzero" />
    <path d="M370 74L371 75L370 74zM543 74L544 75L543 74z" stroke="none" fill="#799EBC" fill-rule="nonzero" />
    <path d="M367 75L363 80L367 75z" stroke="none" fill="#B6BBBF" fill-rule="nonzero" />
    <path d="M368.667 75.3333L369.333 75.6667L368.667 75.3333zM544 75L548 79L544 75z" stroke="none" fill="#799EBC" fill-rule="nonzero" />
    <path d="M545 75L546 76L545 75z" stroke="none" fill="#B6BBBF" fill-rule="nonzero" />
    <path d="M367 76L368 77L367 76z" stroke="none" fill="#799EBC" fill-rule="nonzero" />
    <path d="M546 76L547 77L546 76z" stroke="none" fill="#B6BBBF" fill-rule="nonzero" />
    <path d="M366 77L367 78L366 77z" stroke="none" fill="#799EBC" fill-rule="nonzero" />
    <path d="M547 77L548 78L547 77z" stroke="none" fill="#B6BBBF" fill-rule="nonzero" />
    <path d="M365 78L366 79L365 78z" stroke="none" fill="#799EBC" fill-rule="nonzero" />
    <path d="M548 78L549 79L548 78z" stroke="none" fill="#B6BBBF" fill-rule="nonzero" />
    <path d="M364 79L365 80L364 79z" stroke="none" fill="#799EBC" fill-rule="nonzero" />
    <path d="M549 79L550 80L549 79z" stroke="none" fill="#B6BBBF" fill-rule="nonzero" />
    <path d="M363 80L364 81L363 80z" stroke="none" fill="#799EBC" fill-rule="nonzero" />
    <path d="M550 80L551 81L550 80z" stroke="none" fill="#B6BBBF" fill-rule="nonzero" />
    <path d="M362 81L357 92L358 92L362 81z" stroke="none" fill="#799EBC" fill-rule="nonzero" />
    <path d="M551 81L552 82L551 81zM361 82L362 83L361 82zM552 82L554 84L552 82zM360 83L361 84L360 83z" stroke="none" fill="#B6BBBF" fill-rule="nonzero" />
    <path d="M552 83L553 84L552 83zM553 84L554 85L553 84z" stroke="none" fill="#799EBC" fill-rule="nonzero" />
    <path d="M359 85L360 86L359 85z" stroke="none" fill="#B6BBBF" fill-rule="nonzero" />
    <path d="M554 85L555 86L554 85z" stroke="none" fill="#799EBC" fill-rule="nonzero" />
    <path d="M358.333 86.6667L358.667 87.3333L358.333 86.6667zM555 86L556 87L555 86zM556 87L557 88L556 87zM357.333 88.6667L357.667 89.3333L357.333 88.6667z" stroke="none" fill="#B6BBBF" fill-rule="nonzero" />
    <path d="M399.667 88.3333L400.333 88.6667L399.667 88.3333zM556 88L557 89L556 88zM394 89L394 90L398 90L394 89z" stroke="none" fill="#799EBC" fill-rule="nonzero" />
    <path d="M398 89L398 90L402 90L398 89z" stroke="none" fill="#B6BBBF" fill-rule="nonzero" />
    <path d="M402 89L402 90L408 91L402 89z" stroke="none" fill="#799EBC" fill-rule="nonzero" />
    <path d="M557 89L558 90L557 89z" stroke="none" fill="#B6BBBF" fill-rule="nonzero" />
    <path d="M380 105L381 105C 382.886 98.6511 387.159 94.0305 393 91C 386.277 90.1046 381.033 99.2955 380 105z" stroke="none" fill="#799EBC" fill-rule="nonzero" />
    <path d="M393.667 90.3333L394.333 90.6667L393.667 90.3333z" stroke="none" fill="#B6BBBF" fill-rule="nonzero" />
    <path d="M395 90.5324C 370.943 96.2547 380.347 134.457 405 128.467C 429.046 122.624 418.893 84.8491 395 90.5324z" stroke="none" fill="#FEFEFE" fill-rule="nonzero" />
    <path d="M404.667 90.3333L405.333 90.6667L404.667 90.3333zM558 90L559 91L558 90zM356.333 91.6667L356.667 92.3333L356.333 91.6667zM391 91L392 92L391 91zM407 91L407 92L417 102L418 102C 416.15 96.5594 412.441 92.8498 407 91z" stroke="none" fill="#B6BBBF" fill-rule="nonzero" />
    <path d="M409 91L410 92L409 91zM558 91L559 92L558 91z" stroke="none" fill="#799EBC" fill-rule="nonzero" />
    <path d="M389 92L390 93L389 92z" stroke="none" fill="#B6BBBF" fill-rule="nonzero" />
    <path d="M411 92L412 93L411 92z" stroke="none" fill="#799EBC" fill-rule="nonzero" />
    <path d="M559 92L560 93L559 92z" stroke="none" fill="#B6BBBF" fill-rule="nonzero" />
    <path d="M356 93L356 96L357 96L356 93z" stroke="none" fill="#799EBC" fill-rule="nonzero" />
    <path d="M388 93L389 94L388 93z" stroke="none" fill="#B6BBBF" fill-rule="nonzero" />
    <path d="M412 93L413 94L412 93zM559 93L560 94L559 93z" stroke="none" fill="#799EBC" fill-rule="nonzero" />
    <path d="M355 94L355 97L356 97L355 94z" stroke="none" fill="#B6BBBF" fill-rule="nonzero" />
    <path d="M413 94L414 95L413 94z" stroke="none" fill="#799EBC" fill-rule="nonzero" />
    <path d="M560 94L561 95L560 94z" stroke="none" fill="#B6BBBF" fill-rule="nonzero" />
    <path d="M414 95L415 96L414 95zM560 95L561 96L560 95zM415 96L416 97L415 96z" stroke="none" fill="#799EBC" fill-rule="nonzero" />
    <path d="M561 96L562 97L561 96z" stroke="none" fill="#B6BBBF" fill-rule="nonzero" />
    <path d="M355 97L355 100L356 100L355 97z" stroke="none" fill="#799EBC" fill-rule="nonzero" />
    <path d="M384 97L385 98L384 97z" stroke="none" fill="#B6BBBF" fill-rule="nonzero" />
    <path d="M416 97L417 98L416 97zM561.333 97.6667L561.667 98.3333L561.333 97.6667z" stroke="none" fill="#799EBC" fill-rule="nonzero" />
    <path d="M383 98L384 99L383 98zM562.333 98.6667L562.667 99.3333L562.333 98.6667zM354 99L354 103L355 103L354 99z" stroke="none" fill="#B6BBBF" fill-rule="nonzero" />
    <path d="M417 99L418 100L417 99z" stroke="none" fill="#799EBC" fill-rule="nonzero" />
    <path d="M382 100L383 101L382 100z" stroke="none" fill="#B6BBBF" fill-rule="nonzero" />
    <path d="M562 100L563 101L562 100zM418 101L419 107L420 107L418 101z" stroke="none" fill="#799EBC" fill-rule="nonzero" />
    <path d="M563.333 101.667L563.667 102.333L563.333 101.667zM381.333 102.667L381.667 103.333L381.333 102.667z" stroke="none" fill="#B6BBBF" fill-rule="nonzero" />
    <path d="M354 103L354 107L355 107L354 103z" stroke="none" fill="#799EBC" fill-rule="nonzero" />
    <path d="M418.333 103.667L418.667 104.333L418.333 103.667z" stroke="none" fill="#B6BBBF" fill-rule="nonzero" />
    <path d="M563.333 103.667L563.667 104.333L563.333 103.667z" stroke="none" fill="#799EBC" fill-rule="nonzero" />
    <path d="M380 105L380 114L381 114L380 105zM564 105L564 108L565 108L564 105z" stroke="none" fill="#B6BBBF" fill-rule="nonzero" />
    <path d="M379 106L379 113L380 113L379 106z" stroke="none" fill="#799EBC" fill-rule="nonzero" />
    <path d="M419 107L419 113L420 113L419 107zM353 108L353 157L354 157C 354 143.212 358.309 120.652 353 108z" stroke="none" fill="#B6BBBF" fill-rule="nonzero" />
    <path d="M564.333 108.667L564.667 109.333L564.333 108.667zM419 113L419 116L420 116L419 113z" stroke="none" fill="#799EBC" fill-rule="nonzero" />
    <path d="M565 113L565 221L566 221L566 146L565 113z" stroke="none" fill="#B6BBBF" fill-rule="nonzero" />
    <path d="M380 114L383 122L384 122L380 114z" stroke="none" fill="#799EBC" fill-rule="nonzero" />
    <path d="M418.333 115.667L418.667 116.333L418.333 115.667zM381 116L382 117L381 116z" stroke="none" fill="#B6BBBF" fill-rule="nonzero" />
    <path d="M418 117L419 118L418 117z" stroke="none" fill="#799EBC" fill-rule="nonzero" />
    <path d="M382 118L383 119L382 118zM417 118L410 127L417 118z" stroke="none" fill="#B6BBBF" fill-rule="nonzero" />
    <path d="M417 119L418 120L417 119z" stroke="none" fill="#799EBC" fill-rule="nonzero" />
    <path d="M383 120L384 121L383 120z" stroke="none" fill="#B6BBBF" fill-rule="nonzero" />
    <path d="M416 121L417 122L416 121zM384 122L385 123L384 122zM415 122L416 123L415 122zM385 123L386 124L385 123zM414 123L415 124L414 123zM386 124L387 125L386 124zM413 124L414 125L413 124zM387 125L393 129L393 128L387 125z" stroke="none" fill="#799EBC" fill-rule="nonzero" />
    <path d="M388 125L389 126L388 125z" stroke="none" fill="#B6BBBF" fill-rule="nonzero" />
    <path d="M412 125L413 126L412 125z" stroke="none" fill="#799EBC" fill-rule="nonzero" />
    <path d="M389 126L390 127L389 126z" stroke="none" fill="#B6BBBF" fill-rule="nonzero" />
    <path d="M411 126L412 127L411 126z" stroke="none" fill="#799EBC" fill-rule="nonzero" />
    <path d="M391 127L392 128L391 127zM408 127L409 128L408 127z" stroke="none" fill="#B6BBBF" fill-rule="nonzero" />
    <path d="M409 127L410 128L409 127z" stroke="none" fill="#799EBC" fill-rule="nonzero" />
    <path d="M393.667 128.333L394.333 128.667L393.667 128.333zM405.667 128.333L406.333 128.667L405.667 128.333z" stroke="none" fill="#B6BBBF" fill-rule="nonzero" />
    <path d="M407.667 128.333L408.333 128.667L407.667 128.333zM394 129L394 130L397 130L394 129z" stroke="none" fill="#799EBC" fill-rule="nonzero" />
    <path d="M397 129L397 130L403 130L397 129z" stroke="none" fill="#B6BBBF" fill-rule="nonzero" />
    <path d="M403 129L403 130L406 130L403 129zM398 130L398 131L401 131L398 130zM354 156L354 157L459 157L427 156L354 156zM459 157L460 158L459 157z" stroke="none" fill="#799EBC" fill-rule="nonzero" />
    <path d="M298 158L294 160L294 161L304 158L298 158zM459 158L459 170L460 170L459 158zM627 159L627 160L636 161L636 160L632 158L627 159zM269 169L263 173C 256.143 185.845 243.301 193.52 237.453 208C 222.185 245.804 223.631 290.928 232 330C 236.692 351.908 245.616 374.181 264 388.1C 278.518 399.092 294.545 400 312 400C 317.768 400 333.099 397.306 337.397 401.603C 340.131 404.337 339 410.497 339 414C 339 424.589 338.316 435.439 339.09 446C 340.744 468.557 357.253 486.41 376 497.127C 417.395 520.792 473.519 521.221 518 507.341C 537.819 501.156 558.123 492.008 569.899 474C 583.85 452.666 580 424.321 580 400C 607.948 400 640.658 405.601 661.826 382.961C 672.577 371.463 678.767 355.698 683.667 341C 696.991 301.026 696.149 259.424 684.71 219C 677.399 193.164 665.434 167.578 637 161L637 161L637 162C 664.649 172.742 676.893 200.643 682.4 228C 689.791 264.722 691.061 297.787 680.424 334C 675.61 350.39 668.431 367.82 655.961 379.91C 634.799 400.425 601.93 395 575 395C 575 420.023 579.997 449.521 564.572 471C 552.474 487.845 532.412 496.882 513 502.421C 464.499 516.262 390.021 515.669 355.669 472C 338.788 450.541 344 420.591 344 395C 312.835 395 281.266 399.001 258.09 374C 244.423 359.257 239.018 339.205 235.2 320C 224.346 265.408 228.443 180.719 293 162L293 162L269 169zM303 170L303 171L306 171L303 170z" stroke="none" fill="#B6BBBF" fill-rule="nonzero" />
    <path d="M306 170L306 171L322 171L306 170zM324 170L324 171L328 171L324 170z" stroke="none" fill="#799EBC" fill-rule="nonzero" />
    <path d="M579 170C 575.854 207.69 585.261 245.011 550 271.239C 544.062 275.656 537.034 279.185 530 281.48C 517.048 285.706 502.435 284 489 284C 462.415 284 435.557 282.876 409 284.039C 382.053 285.219 358.298 302.015 354.3 330C 350.048 359.764 354 392.912 354 423C 354 440.912 353.289 456.774 366.3 470.91C 377.378 482.947 393.669 489.208 409 493.579C 442.935 503.254 476.007 502.479 510 493.629C 530.624 488.259 553.371 477.88 562.123 457C 567.658 443.797 566 427.968 566 414C 566 410.25 567.555 401.695 564.258 399.028C 559.402 395.099 543.133 398 537 398L537 398L460 398L460 385L592 385C 611.947 385 634.007 388.373 649.829 373.561C 660.067 363.977 665.654 349.026 670 336C 681.914 300.291 681.41 264.37 672.373 228C 667.799 209.591 661.677 190.589 646 178.529C 628.404 164.993 599.751 170 579 170z" stroke="none" fill="#FBDF5A" fill-rule="nonzero" />
    <path d="M297 171L297 172L300 172L297 171z" stroke="none" fill="#B6BBBF" fill-rule="nonzero" />
    <path d="M300 171L300 172L303 172L300 171z" stroke="none" fill="#799EBC" fill-rule="nonzero" />
    <path d="M294.667 172.333L295.333 172.667L294.667 172.333z" stroke="none" fill="#B6BBBF" fill-rule="nonzero" />
    <path d="M296.667 172.333L297.333 172.667L296.667 172.333z" stroke="none" fill="#799EBC" fill-rule="nonzero" />
    <path d="M290.667 173.333L291.333 173.667L290.667 173.333z" stroke="none" fill="#B6BBBF" fill-rule="nonzero" />
    <path d="M292.667 173.333L293.333 173.667L292.667 173.333z" stroke="none" fill="#799EBC" fill-rule="nonzero" />
    <path d="M283 176L283 177L289 175L283 176z" stroke="none" fill="#B6BBBF" fill-rule="nonzero" />
    <path d="M289.667 174.333L290.333 174.667L289.667 174.333zM287.667 175.333L288.333 175.667L287.667 175.333zM285.667 176.333L286.333 176.667L285.667 176.333z" stroke="none" fill="#799EBC" fill-rule="nonzero" />
    <path d="M281 177L282 178L281 177z" stroke="none" fill="#B6BBBF" fill-rule="nonzero" />
    <path d="M276 181L276 182L284 178L276 181z" stroke="none" fill="#799EBC" fill-rule="nonzero" />
    <path d="M279 178L280 179L279 178zM278 179L279 180L278 179zM276 180L277 181L276 180zM275 181L276 182L275 181zM273 182L271 185L273 182z" stroke="none" fill="#B6BBBF" fill-rule="nonzero" />
    <path d="M274 182L275 183L274 182zM273 183L274 184L273 183zM272 184L273 185L272 184z" stroke="none" fill="#799EBC" fill-rule="nonzero" />
    <path d="M269 185L263 192L269 185z" stroke="none" fill="#B6BBBF" fill-rule="nonzero" />
    <path d="M269 187L272 185L269 187zM268 187L269 188L268 187zM267 188L268 189L267 188zM266 189L267 190L266 189zM265 190L266 191L265 190zM264 191C 257.905 198.685 252.293 207.347 250 217L250 217L251 217L264 191z" stroke="none" fill="#799EBC" fill-rule="nonzero" />
    <path d="M261 194L262 195L261 194zM260 195L261 196L260 195zM259 196L260 197L259 196zM258 198L259 199L258 198zM257 199L258 200L257 199zM256 201L257 202L256 201zM255 203L256 204L255 203zM254 205L255 206L254 205zM253.333 206.667L253.667 207.333L253.333 206.667zM252.333 208.667L252.667 209.333L252.333 208.667zM251 211L252 212L251 211zM250.333 213.667L250.667 214.333L250.333 213.667zM249.333 216.667L249.667 217.333L249.333 216.667z" stroke="none" fill="#B6BBBF" fill-rule="nonzero" />
    <path d="M249.333 218.667L249.667 219.333L249.333 218.667z" stroke="none" fill="#799EBC" fill-rule="nonzero" />
    <path d="M248.333 219.667L248.667 220.333L248.333 219.667z" stroke="none" fill="#B6BBBF" fill-rule="nonzero" />
    <path d="M248 221L248 224L249 224L248 221z" stroke="none" fill="#799EBC" fill-rule="nonzero" />
    <path d="M247 222L247 226L248 226L247 222z" stroke="none" fill="#B6BBBF" fill-rule="nonzero" />
    <path d="M564.333 224.667L564.667 225.333L564.333 224.667zM247.333 226.667L247.667 227.333L247.333 226.667z" stroke="none" fill="#799EBC" fill-rule="nonzero" />
    <path d="M564 226L564 229L565 229L564 226zM246 227L246 230L247 230L246 227z" stroke="none" fill="#B6BBBF" fill-rule="nonzero" />
    <path d="M563.333 229.667L563.667 230.333L563.333 229.667zM246.333 230.667L246.667 231.333L246.333 230.667z" stroke="none" fill="#799EBC" fill-rule="nonzero" />
    <path d="M245 231L245 234L246 234L245 231zM563.333 231.667L563.667 232.333L563.333 231.667z" stroke="none" fill="#B6BBBF" fill-rule="nonzero" />
    <path d="M562 233L563 234L562 233zM245 234L245 237L246 237L245 234z" stroke="none" fill="#799EBC" fill-rule="nonzero" />
    <path d="M562.333 234.667L562.667 235.333L562.333 234.667zM244 236L244 239L245 239L244 236z" stroke="none" fill="#B6BBBF" fill-rule="nonzero" />
    <path d="M561 236L562 237L561 236z" stroke="none" fill="#799EBC" fill-rule="nonzero" />
    <path d="M561.333 237.667L561.667 238.333L561.333 237.667z" stroke="none" fill="#B6BBBF" fill-rule="nonzero" />
    <path d="M560.333 238.667L560.667 239.333L560.333 238.667zM244.333 239.667L244.667 240.333L244.333 239.667z" stroke="none" fill="#799EBC" fill-rule="nonzero" />
    <path d="M560 240L561 241L560 240z" stroke="none" fill="#B6BBBF" fill-rule="nonzero" />
    <path d="M559 241L560 242L559 241z" stroke="none" fill="#799EBC" fill-rule="nonzero" />
    <path d="M243.333 242.667L243.667 243.333L243.333 242.667zM559 242L560 243L559 242z" stroke="none" fill="#B6BBBF" fill-rule="nonzero" />
    <path d="M558 243L557 245L558 243zM243 244L243 247L244 247L243 244z" stroke="none" fill="#799EBC" fill-rule="nonzero" />
    <path d="M558 244L559 245L558 244zM557 245L558 246L557 245z" stroke="none" fill="#B6BBBF" fill-rule="nonzero" />
    <path d="M556 246L557 247L556 246z" stroke="none" fill="#799EBC" fill-rule="nonzero" />
    <path d="M242 247L242 250L243 250L242 247zM556 247L557 248L556 247zM555 248L556 249L555 248z" stroke="none" fill="#B6BBBF" fill-rule="nonzero" />
    <path d="M554 249L553 251L554 249zM242 250L242 256L243 256L242 250z" stroke="none" fill="#799EBC" fill-rule="nonzero" />
    <path d="M554 250L555 251L554 250zM553 251L554 252L553 251zM552 252L553 253L552 252zM551 253L552 254L551 253zM241 254L241 257L242 257L241 254z" stroke="none" fill="#B6BBBF" fill-rule="nonzero" />
    <path d="M550 254L551 255L550 254zM549 255L550 256L549 255zM548 256L549 257L548 256zM241 257L241 266L242 266L241 257z" stroke="none" fill="#799EBC" fill-rule="nonzero" />
    <path d="M547 257L548 258L547 257zM546 258L547 259L546 258z" stroke="none" fill="#B6BBBF" fill-rule="nonzero" />
    <path d="M544 259L543 261L544 259z" stroke="none" fill="#799EBC" fill-rule="nonzero" />
    <path d="M545 259L546 260L545 259zM544 260L545 261L544 260zM542 261L543 262L542 261z" stroke="none" fill="#B6BBBF" fill-rule="nonzero" />
    <path d="M540 262L541 263L540 262z" stroke="none" fill="#799EBC" fill-rule="nonzero" />
    <path d="M541 262L542 263L541 262zM240 263L240 270L241 270L240 263zM539 263L540 264L539 263z" stroke="none" fill="#B6BBBF" fill-rule="nonzero" />
    <path d="M537 264L538 265L537 264z" stroke="none" fill="#799EBC" fill-rule="nonzero" />
    <path d="M538 264L539 265L538 264z" stroke="none" fill="#B6BBBF" fill-rule="nonzero" />
    <path d="M535 265L536 266L535 265z" stroke="none" fill="#799EBC" fill-rule="nonzero" />
    <path d="M536 265L537 266L536 265z" stroke="none" fill="#B6BBBF" fill-rule="nonzero" />
    <path d="M533 266L534 267L533 266zM530 267L531 268L530 267z" stroke="none" fill="#799EBC" fill-rule="nonzero" />
    <path d="M531 267L532 268L531 267z" stroke="none" fill="#B6BBBF" fill-rule="nonzero" />
    <path d="M241 268L242 269L241 268zM527.667 268.333L528.333 268.667L527.667 268.333z" stroke="none" fill="#799EBC" fill-rule="nonzero" />
    <path d="M529 268L530 269L529 268z" stroke="none" fill="#B6BBBF" fill-rule="nonzero" />
    <path d="M523.667 269.333L524.333 269.667L523.667 269.333z" stroke="none" fill="#799EBC" fill-rule="nonzero" />
    <path d="M525.667 269.333L526.333 269.667L525.667 269.333z" stroke="none" fill="#B6BBBF" fill-rule="nonzero" />
    <path d="M240 270L240 285L241 285L240 270zM402 270L402 271L474 271L451 270L402 270zM514 270L514 271L520 271L514 270z" stroke="none" fill="#799EBC" fill-rule="nonzero" />
    <path d="M520 270L520 271L523 271L520 270z" stroke="none" fill="#B6BBBF" fill-rule="nonzero" />
    <path d="M395 271L395 272L398 272L395 271z" stroke="none" fill="#799EBC" fill-rule="nonzero" />
    <path d="M398 271L398 272L515 272L479 271L398 271z" stroke="none" fill="#B6BBBF" fill-rule="nonzero" />
    <path d="M391.667 272.333L392.333 272.667L391.667 272.333z" stroke="none" fill="#799EBC" fill-rule="nonzero" />
    <path d="M393 272L393 273L396 273L393 272z" stroke="none" fill="#B6BBBF" fill-rule="nonzero" />
    <path d="M387.667 273.333L388.333 273.667L387.667 273.333z" stroke="none" fill="#799EBC" fill-rule="nonzero" />
    <path d="M389.667 273.333L390.333 273.667L389.667 273.333z" stroke="none" fill="#B6BBBF" fill-rule="nonzero" />
    <path d="M384.667 274.333L385.333 274.667L384.667 274.333z" stroke="none" fill="#799EBC" fill-rule="nonzero" />
    <path d="M386.667 274.333L387.333 274.667L386.667 274.333z" stroke="none" fill="#B6BBBF" fill-rule="nonzero" />
    <path d="M382 275L383 276L382 275z" stroke="none" fill="#799EBC" fill-rule="nonzero" />
    <path d="M383.667 275.333L384.333 275.667L383.667 275.333z" stroke="none" fill="#B6BBBF" fill-rule="nonzero" />
    <path d="M380 276L381 277L380 276z" stroke="none" fill="#799EBC" fill-rule="nonzero" />
    <path d="M381 276L382 277L381 276z" stroke="none" fill="#B6BBBF" fill-rule="nonzero" />
    <path d="M378 277L379 278L378 277z" stroke="none" fill="#799EBC" fill-rule="nonzero" />
    <path d="M379 277L380 278L379 277z" stroke="none" fill="#B6BBBF" fill-rule="nonzero" />
    <path d="M376 278L377 279L376 278zM374 279L375 280L374 279z" stroke="none" fill="#799EBC" fill-rule="nonzero" />
    <path d="M375 279L376 280L375 279z" stroke="none" fill="#B6BBBF" fill-rule="nonzero" />
    <path d="M372 280L373 281L372 280z" stroke="none" fill="#799EBC" fill-rule="nonzero" />
    <path d="M373 280L374 281L373 280z" stroke="none" fill="#B6BBBF" fill-rule="nonzero" />
    <path d="M368 284L372 282L368 284z" stroke="none" fill="#799EBC" fill-rule="nonzero" />
    <path d="M370 282L371 283L370 282zM369 283L370 284L369 283z" stroke="none" fill="#B6BBBF" fill-rule="nonzero" />
    <path d="M366 284L364 287L366 284z" stroke="none" fill="#799EBC" fill-rule="nonzero" />
    <path d="M367 284L368 285L367 284zM240 285L240 293L241 293L240 285zM366 285L367 286L366 285zM365 286L366 287L365 286zM363 287L364 288L363 287zM362 288L363 289L362 288z" stroke="none" fill="#B6BBBF" fill-rule="nonzero" />
    <path d="M241 289L241 298L242 298L241 289z" stroke="none" fill="#799EBC" fill-rule="nonzero" />
    <path d="M361 289L362 290L361 289zM360 290L361 291L360 290zM359 291L360 292L359 291zM358 292L359 293L358 292zM357 293L358 294L357 293z" stroke="none" fill="#B6BBBF" fill-rule="nonzero" />
    <path d="M356 294L357 295L356 294zM355 295L354 297L355 295z" stroke="none" fill="#799EBC" fill-rule="nonzero" />
    <path d="M355 296L356 297L355 296zM354 297L355 298L354 297zM241 298L241 302L242 302L241 298zM353 298L354 299L353 298z" stroke="none" fill="#B6BBBF" fill-rule="nonzero" />
    <path d="M352 299L353 300L352 299z" stroke="none" fill="#799EBC" fill-rule="nonzero" />
    <path d="M352 300L353 301L352 300z" stroke="none" fill="#B6BBBF" fill-rule="nonzero" />
    <path d="M242 301L242 305L243 305L242 301z" stroke="none" fill="#799EBC" fill-rule="nonzero" />
    <path d="M351 301L352 302L351 301z" stroke="none" fill="#B6BBBF" fill-rule="nonzero" />
    <path d="M350 302L351 303L350 302z" stroke="none" fill="#799EBC" fill-rule="nonzero" />
    <path d="M349 304L350 305L349 304zM242 305L242 308L243 308L242 305z" stroke="none" fill="#B6BBBF" fill-rule="nonzero" />
    <path d="M348 305L349 306L348 305z" stroke="none" fill="#799EBC" fill-rule="nonzero" />
    <path d="M348 306L349 307L348 306z" stroke="none" fill="#B6BBBF" fill-rule="nonzero" />
    <path d="M347 307L348 308L347 307z" stroke="none" fill="#799EBC" fill-rule="nonzero" />
    <path d="M347 308L348 309L347 308z" stroke="none" fill="#B6BBBF" fill-rule="nonzero" />
    <path d="M243.333 309.667L243.667 310.333L243.333 309.667zM346 309L347 310L346 309z" stroke="none" fill="#799EBC" fill-rule="nonzero" />
    <path d="M346 310L347 311L346 310zM243 311L243 314L244 314L243 311z" stroke="none" fill="#B6BBBF" fill-rule="nonzero" />
    <path d="M345 311L346 312L345 311z" stroke="none" fill="#799EBC" fill-rule="nonzero" />
    <path d="M345.333 312.667L345.667 313.333L345.333 312.667z" stroke="none" fill="#B6BBBF" fill-rule="nonzero" />
    <path d="M344.333 313.667L344.667 314.333L344.333 313.667zM244 315L245 316L244 315z" stroke="none" fill="#799EBC" fill-rule="nonzero" />
    <path d="M344 315L345 316L344 315zM244 316L244 319L245 319L244 316z" stroke="none" fill="#B6BBBF" fill-rule="nonzero" />
    <path d="M343.333 316.667L343.667 317.333L343.333 316.667z" stroke="none" fill="#799EBC" fill-rule="nonzero" />
    <path d="M343.333 318.667L343.667 319.333L343.333 318.667z" stroke="none" fill="#B6BBBF" fill-rule="nonzero" />
    <path d="M245.333 319.667L245.667 320.333L245.333 319.667zM342.333 319.667L342.667 320.333L342.333 319.667z" stroke="none" fill="#799EBC" fill-rule="nonzero" />
    <path d="M245 321L245 324L246 324L245 321zM342.333 321.667L342.667 322.333L342.333 321.667z" stroke="none" fill="#B6BBBF" fill-rule="nonzero" />
    <path d="M341 323L341 326L342 326L341 323zM246.333 324.667L246.667 325.333L246.333 324.667z" stroke="none" fill="#799EBC" fill-rule="nonzero" />
    <path d="M246 326L246 329L247 329L246 326zM341 326L341 329L342 329L341 326z" stroke="none" fill="#B6BBBF" fill-rule="nonzero" />
    <path d="M247.333 328.667L247.667 329.333L247.333 328.667z" stroke="none" fill="#799EBC" fill-rule="nonzero" />
    <path d="M247 330L247 333L248 333L247 330z" stroke="none" fill="#B6BBBF" fill-rule="nonzero" />
    <path d="M340 330L340 385L341 385L341 348L340 330zM248.333 332.667L248.667 333.333L248.333 332.667z" stroke="none" fill="#799EBC" fill-rule="nonzero" />
    <path d="M248 334L248 337L249 337L248 334z" stroke="none" fill="#B6BBBF" fill-rule="nonzero" />
    <path d="M249.333 336.667L249.667 337.333L249.333 336.667z" stroke="none" fill="#799EBC" fill-rule="nonzero" />
    <path d="M249.333 338.667L249.667 339.333L249.333 338.667z" stroke="none" fill="#B6BBBF" fill-rule="nonzero" />
    <path d="M250.333 339.667L250.667 340.333L250.333 339.667z" stroke="none" fill="#799EBC" fill-rule="nonzero" />
    <path d="M250.333 341.667L250.667 342.333L250.333 341.667z" stroke="none" fill="#B6BBBF" fill-rule="nonzero" />
    <path d="M251.333 342.667L251.667 343.333L251.333 342.667z" stroke="none" fill="#799EBC" fill-rule="nonzero" />
    <path d="M251 344L252 345L251 344z" stroke="none" fill="#B6BBBF" fill-rule="nonzero" />
    <path d="M252.333 345.667L252.667 346.333L252.333 345.667z" stroke="none" fill="#799EBC" fill-rule="nonzero" />
    <path d="M252 347L253 348L252 347z" stroke="none" fill="#B6BBBF" fill-rule="nonzero" />
    <path d="M253 348L254 349L253 348z" stroke="none" fill="#799EBC" fill-rule="nonzero" />
    <path d="M253 349L254 350L253 349z" stroke="none" fill="#B6BBBF" fill-rule="nonzero" />
    <path d="M254 350L255 351L254 350z" stroke="none" fill="#799EBC" fill-rule="nonzero" />
    <path d="M254 351L255 352L254 351z" stroke="none" fill="#B6BBBF" fill-rule="nonzero" />
    <path d="M255 352L256 353L255 352z" stroke="none" fill="#799EBC" fill-rule="nonzero" />
    <path d="M255 353L256 354L255 353z" stroke="none" fill="#B6BBBF" fill-rule="nonzero" />
    <path d="M256 354L257 355L256 354z" stroke="none" fill="#799EBC" fill-rule="nonzero" />
    <path d="M256 355L257 356L256 355z" stroke="none" fill="#B6BBBF" fill-rule="nonzero" />
    <path d="M257 356L258 357L257 356z" stroke="none" fill="#799EBC" fill-rule="nonzero" />
    <path d="M257 357L258 358L257 357z" stroke="none" fill="#B6BBBF" fill-rule="nonzero" />
    <path d="M258 358L260 360L258 358z" stroke="none" fill="#799EBC" fill-rule="nonzero" />
    <path d="M258 359L259 360L258 359zM259 360L260 361L259 360z" stroke="none" fill="#B6BBBF" fill-rule="nonzero" />
    <path d="M260 361L262 363L260 361z" stroke="none" fill="#799EBC" fill-rule="nonzero" />
    <path d="M260 362L261 363L260 362zM261 363L262 364L261 363z" stroke="none" fill="#B6BBBF" fill-rule="nonzero" />
    <path d="M262 364L266 368L262 364z" stroke="none" fill="#799EBC" fill-rule="nonzero" />
    <path d="M262 365L263 366L262 365zM263 366L264 367L263 366zM264 367L265 368L264 367zM265 368L266 369L265 368zM266 369L267 370L266 369zM267 370L268 371L267 370zM268 371L269 372L268 371zM269 372L270 373L269 372zM270 373L272 375L270 373z" stroke="none" fill="#B6BBBF" fill-rule="nonzero" />
    <path d="M271 373L272 374L271 373zM272 374L273 375L272 374zM273 375L274 376L273 375z" stroke="none" fill="#799EBC" fill-rule="nonzero" />
    <path d="M274 376L276 378L274 376z" stroke="none" fill="#B6BBBF" fill-rule="nonzero" />
    <path d="M275 376L276 377L275 376zM276 377L277 378L276 377z" stroke="none" fill="#799EBC" fill-rule="nonzero" />
    <path d="M277 378L278 379L277 378z" stroke="none" fill="#B6BBBF" fill-rule="nonzero" />
    <path d="M278 378L279 379L278 378z" stroke="none" fill="#799EBC" fill-rule="nonzero" />
    <path d="M279 379L280 380L279 379z" stroke="none" fill="#B6BBBF" fill-rule="nonzero" />
    <path d="M280 379L281 380L280 379z" stroke="none" fill="#799EBC" fill-rule="nonzero" />
    <path d="M281 380L282 381L281 380z" stroke="none" fill="#B6BBBF" fill-rule="nonzero" />
    <path d="M282 380L283 381L282 380z" stroke="none" fill="#799EBC" fill-rule="nonzero" />
    <path d="M283 381L284 382L283 381z" stroke="none" fill="#B6BBBF" fill-rule="nonzero" />
    <path d="M284.667 381.333L285.333 381.667L284.667 381.333z" stroke="none" fill="#799EBC" fill-rule="nonzero" />
    <path d="M285.667 382.333L286.333 382.667L285.667 382.333z" stroke="none" fill="#B6BBBF" fill-rule="nonzero" />
    <path d="M287.667 382.333L288.333 382.667L287.667 382.333z" stroke="none" fill="#799EBC" fill-rule="nonzero" />
    <path d="M289.667 383.333L290.333 383.667L289.667 383.333z" stroke="none" fill="#B6BBBF" fill-rule="nonzero" />
    <path d="M291 383L292 384L291 383z" stroke="none" fill="#799EBC" fill-rule="nonzero" />
    <path d="M293 384L293 385L296 385L293 384z" stroke="none" fill="#B6BBBF" fill-rule="nonzero" />
    <path d="M296 384L296 385L299 385L296 384zM627 395L628 396L627 395zM303 396L303 397L343 397C 332.488 392.589 314.434 396 303 396zM576 396L576 397L620 397C 608.537 392.19 588.48 396 576 396z" stroke="none" fill="#799EBC" fill-rule="nonzero" />
    <path d="M513 426.638C 488.824 433.626 500.506 471.291 525 464.211C 548.853 457.316 537.243 419.631 513 426.638z" stroke="none" fill="#FEFEFE" fill-rule="nonzero" />
    <path d="M519 502L520 503L519 502zM406 504L407 505L406 504zM410 505L411 506L410 505zM507.667 505.333L508.333 505.667L507.667 505.333zM414 506L415 507L414 506zM416 506L417 507L416 506zM502 506L502 507L505 507L502 506zM418 507L419 508L418 507zM420 507L421 508L420 507zM498 507L499 508L498 507zM500 507L501 508L500 507zM422 508L422 509L426 509L422 508zM493 508L494 509L493 508zM495 508L496 509L495 508zM427.667 509.333L428.333 509.667L427.667 509.333zM431 509L432 510L431 509zM490 509L491 510L490 509zM434 510L435 511L434 510zM479 510L480 511L479 510zM483.667 510.333L484.333 510.667L483.667 510.333zM443 511L444 512L443 511zM448 511L448 512L452 512L448 511zM468.667 511.333L469.333 511.667L468.667 511.333zM471 511L472 512L471 511zM475.667 511.333L476.333 511.667L475.667 511.333z" stroke="none" fill="#799EBC" fill-rule="nonzero" />
</g>
</svg>